<mxfile host="Electron" modified="2023-05-29T22:16:09.345Z" agent="Mozilla/5.0 (X11; Linux x86_64) AppleWebKit/537.36 (KHTML, like Gecko) draw.io/21.2.8 Chrome/112.0.5615.165 Electron/24.2.0 Safari/537.36" etag="U6QlWSdNX8y9eoMt4n3f" version="21.2.8" type="device">
  <diagram id="C5RBs43oDa-KdzZeNtuy" name="Page-1">
    <mxGraphModel dx="2074" dy="691" grid="1" gridSize="10" guides="1" tooltips="1" connect="1" arrows="1" fold="1" page="1" pageScale="1" pageWidth="827" pageHeight="1169" math="0" shadow="0">
      <root>
        <mxCell id="WIyWlLk6GJQsqaUBKTNV-0" />
        <mxCell id="WIyWlLk6GJQsqaUBKTNV-1" parent="WIyWlLk6GJQsqaUBKTNV-0" />
        <mxCell id="T1b6Rpatq1jSky2t6AqJ-9" value="" style="rounded=0;whiteSpace=wrap;html=1;fillColor=#f5f5f5;fontColor=#333333;strokeColor=#666666;" parent="WIyWlLk6GJQsqaUBKTNV-1" vertex="1">
          <mxGeometry x="2200" y="2160" width="190" height="537" as="geometry" />
        </mxCell>
        <mxCell id="DQUW2nhXrTQ-H9Uuajvi-35" value="" style="rounded=0;whiteSpace=wrap;html=1;fillColor=#f5f5f5;fontColor=#333333;strokeColor=#666666;" parent="WIyWlLk6GJQsqaUBKTNV-1" vertex="1">
          <mxGeometry x="1000" y="2040" width="480" height="720" as="geometry" />
        </mxCell>
        <mxCell id="ptOUUm3T6Vk_q6HezHhn-102" value="" style="rounded=0;whiteSpace=wrap;html=1;fillColor=#f5f5f5;fontColor=#333333;strokeColor=#666666;" parent="WIyWlLk6GJQsqaUBKTNV-1" vertex="1">
          <mxGeometry x="90" y="2023" width="350" height="710" as="geometry" />
        </mxCell>
        <mxCell id="ptOUUm3T6Vk_q6HezHhn-72" value="" style="rounded=0;whiteSpace=wrap;html=1;fillColor=#f5f5f5;fontColor=#333333;strokeColor=#666666;" parent="WIyWlLk6GJQsqaUBKTNV-1" vertex="1">
          <mxGeometry x="-730" y="1800" width="180" height="390" as="geometry" />
        </mxCell>
        <mxCell id="ptOUUm3T6Vk_q6HezHhn-61" style="edgeStyle=orthogonalEdgeStyle;rounded=0;orthogonalLoop=1;jettySize=auto;html=1;exitX=0.5;exitY=1;exitDx=0;exitDy=0;exitPerimeter=0;entryX=0.5;entryY=0;entryDx=0;entryDy=0;" parent="WIyWlLk6GJQsqaUBKTNV-1" source="ptOUUm3T6Vk_q6HezHhn-9" target="ptOUUm3T6Vk_q6HezHhn-58" edge="1">
          <mxGeometry relative="1" as="geometry" />
        </mxCell>
        <mxCell id="ptOUUm3T6Vk_q6HezHhn-9" value="Start game" style="strokeWidth=2;html=1;shape=mxgraph.flowchart.terminator;whiteSpace=wrap;fillColor=#d5e8d4;strokeColor=#82b366;" parent="WIyWlLk6GJQsqaUBKTNV-1" vertex="1">
          <mxGeometry x="-80" y="420" width="100" height="60" as="geometry" />
        </mxCell>
        <mxCell id="ptOUUm3T6Vk_q6HezHhn-15" style="edgeStyle=orthogonalEdgeStyle;rounded=0;orthogonalLoop=1;jettySize=auto;html=1;exitX=0.5;exitY=1;exitDx=0;exitDy=0;exitPerimeter=0;entryX=0.5;entryY=0;entryDx=0;entryDy=0;" parent="WIyWlLk6GJQsqaUBKTNV-1" source="ptOUUm3T6Vk_q6HezHhn-11" target="ptOUUm3T6Vk_q6HezHhn-12" edge="1">
          <mxGeometry relative="1" as="geometry" />
        </mxCell>
        <mxCell id="ptOUUm3T6Vk_q6HezHhn-11" value="Players turn" style="strokeWidth=2;html=1;shape=mxgraph.flowchart.terminator;whiteSpace=wrap;fillColor=#dae8fc;strokeColor=#6c8ebf;" parent="WIyWlLk6GJQsqaUBKTNV-1" vertex="1">
          <mxGeometry x="180" y="420" width="100" height="60" as="geometry" />
        </mxCell>
        <mxCell id="ptOUUm3T6Vk_q6HezHhn-14" style="edgeStyle=orthogonalEdgeStyle;rounded=0;orthogonalLoop=1;jettySize=auto;html=1;exitX=0.5;exitY=1;exitDx=0;exitDy=0;entryX=0.5;entryY=0;entryDx=0;entryDy=0;" parent="WIyWlLk6GJQsqaUBKTNV-1" source="ptOUUm3T6Vk_q6HezHhn-12" target="ptOUUm3T6Vk_q6HezHhn-13" edge="1">
          <mxGeometry relative="1" as="geometry" />
        </mxCell>
        <mxCell id="ptOUUm3T6Vk_q6HezHhn-12" value="Take card" style="rounded=1;whiteSpace=wrap;html=1;fontSize=12;glass=0;strokeWidth=1;shadow=0;fillColor=#f5f5f5;fontColor=#333333;strokeColor=#666666;" parent="WIyWlLk6GJQsqaUBKTNV-1" vertex="1">
          <mxGeometry x="170" y="530" width="120" height="40" as="geometry" />
        </mxCell>
        <mxCell id="ptOUUm3T6Vk_q6HezHhn-20" style="edgeStyle=orthogonalEdgeStyle;rounded=0;orthogonalLoop=1;jettySize=auto;html=1;exitX=0.5;exitY=1;exitDx=0;exitDy=0;entryX=0.5;entryY=0;entryDx=0;entryDy=0;" parent="WIyWlLk6GJQsqaUBKTNV-1" source="ptOUUm3T6Vk_q6HezHhn-13" target="ptOUUm3T6Vk_q6HezHhn-19" edge="1">
          <mxGeometry relative="1" as="geometry" />
        </mxCell>
        <mxCell id="ptOUUm3T6Vk_q6HezHhn-13" value="Display card" style="rounded=1;whiteSpace=wrap;html=1;fontSize=12;glass=0;strokeWidth=1;shadow=0;fillColor=#f5f5f5;fontColor=#333333;strokeColor=#666666;" parent="WIyWlLk6GJQsqaUBKTNV-1" vertex="1">
          <mxGeometry x="170" y="620" width="120" height="40" as="geometry" />
        </mxCell>
        <mxCell id="ptOUUm3T6Vk_q6HezHhn-25" value="Continue" style="edgeStyle=orthogonalEdgeStyle;rounded=0;orthogonalLoop=1;jettySize=auto;html=1;exitX=0.5;exitY=0;exitDx=0;exitDy=0;entryX=1;entryY=0.5;entryDx=0;entryDy=0;" parent="WIyWlLk6GJQsqaUBKTNV-1" source="ptOUUm3T6Vk_q6HezHhn-18" target="ptOUUm3T6Vk_q6HezHhn-12" edge="1">
          <mxGeometry x="-0.2857" relative="1" as="geometry">
            <Array as="points">
              <mxPoint x="410" y="550" />
            </Array>
            <mxPoint as="offset" />
          </mxGeometry>
        </mxCell>
        <mxCell id="ptOUUm3T6Vk_q6HezHhn-27" value="Stop" style="edgeStyle=orthogonalEdgeStyle;rounded=0;orthogonalLoop=1;jettySize=auto;html=1;exitX=1;exitY=0.5;exitDx=0;exitDy=0;entryX=0;entryY=0.5;entryDx=0;entryDy=0;entryPerimeter=0;" parent="WIyWlLk6GJQsqaUBKTNV-1" source="ptOUUm3T6Vk_q6HezHhn-18" target="ptOUUm3T6Vk_q6HezHhn-26" edge="1">
          <mxGeometry x="-0.4706" relative="1" as="geometry">
            <mxPoint x="410" y="450" as="targetPoint" />
            <Array as="points">
              <mxPoint x="490" y="930" />
              <mxPoint x="490" y="450" />
            </Array>
            <mxPoint as="offset" />
          </mxGeometry>
        </mxCell>
        <mxCell id="ptOUUm3T6Vk_q6HezHhn-18" value="Stop or continue?" style="rhombus;whiteSpace=wrap;html=1;shadow=0;fontFamily=Helvetica;fontSize=12;align=center;strokeWidth=1;spacing=6;spacingTop=-4;fillColor=#f5f5f5;strokeColor=#666666;fontColor=#333333;" parent="WIyWlLk6GJQsqaUBKTNV-1" vertex="1">
          <mxGeometry x="360" y="890" width="100" height="80" as="geometry" />
        </mxCell>
        <mxCell id="ptOUUm3T6Vk_q6HezHhn-23" style="edgeStyle=orthogonalEdgeStyle;rounded=0;orthogonalLoop=1;jettySize=auto;html=1;exitX=0.5;exitY=1;exitDx=0;exitDy=0;entryX=0.5;entryY=0;entryDx=0;entryDy=0;" parent="WIyWlLk6GJQsqaUBKTNV-1" source="ptOUUm3T6Vk_q6HezHhn-19" target="ptOUUm3T6Vk_q6HezHhn-22" edge="1">
          <mxGeometry relative="1" as="geometry" />
        </mxCell>
        <mxCell id="ptOUUm3T6Vk_q6HezHhn-19" value="Calculate current points" style="rounded=1;whiteSpace=wrap;html=1;fontSize=12;glass=0;strokeWidth=1;shadow=0;fillColor=#f5f5f5;fontColor=#333333;strokeColor=#666666;" parent="WIyWlLk6GJQsqaUBKTNV-1" vertex="1">
          <mxGeometry x="170" y="710" width="120" height="40" as="geometry" />
        </mxCell>
        <mxCell id="ptOUUm3T6Vk_q6HezHhn-30" style="edgeStyle=orthogonalEdgeStyle;rounded=0;orthogonalLoop=1;jettySize=auto;html=1;exitX=0.5;exitY=1;exitDx=0;exitDy=0;entryX=0.5;entryY=0;entryDx=0;entryDy=0;" parent="WIyWlLk6GJQsqaUBKTNV-1" source="ptOUUm3T6Vk_q6HezHhn-22" target="ptOUUm3T6Vk_q6HezHhn-28" edge="1">
          <mxGeometry relative="1" as="geometry" />
        </mxCell>
        <mxCell id="ptOUUm3T6Vk_q6HezHhn-22" value="Display current points" style="rounded=1;whiteSpace=wrap;html=1;fontSize=12;glass=0;strokeWidth=1;shadow=0;fillColor=#f5f5f5;fontColor=#333333;strokeColor=#666666;" parent="WIyWlLk6GJQsqaUBKTNV-1" vertex="1">
          <mxGeometry x="170" y="800" width="120" height="40" as="geometry" />
        </mxCell>
        <mxCell id="ptOUUm3T6Vk_q6HezHhn-43" style="edgeStyle=orthogonalEdgeStyle;rounded=0;orthogonalLoop=1;jettySize=auto;html=1;exitX=0.5;exitY=1;exitDx=0;exitDy=0;exitPerimeter=0;entryX=0.5;entryY=0;entryDx=0;entryDy=0;" parent="WIyWlLk6GJQsqaUBKTNV-1" source="ptOUUm3T6Vk_q6HezHhn-26" target="ptOUUm3T6Vk_q6HezHhn-35" edge="1">
          <mxGeometry relative="1" as="geometry" />
        </mxCell>
        <mxCell id="ptOUUm3T6Vk_q6HezHhn-26" value="Banks turn" style="strokeWidth=2;html=1;shape=mxgraph.flowchart.terminator;whiteSpace=wrap;fillColor=#fff2cc;strokeColor=#d6b656;" parent="WIyWlLk6GJQsqaUBKTNV-1" vertex="1">
          <mxGeometry x="660" y="420" width="100" height="60" as="geometry" />
        </mxCell>
        <mxCell id="ptOUUm3T6Vk_q6HezHhn-32" value="Yes" style="edgeStyle=orthogonalEdgeStyle;rounded=0;orthogonalLoop=1;jettySize=auto;html=1;exitX=0.5;exitY=1;exitDx=0;exitDy=0;entryX=0.5;entryY=0;entryDx=0;entryDy=0;entryPerimeter=0;" parent="WIyWlLk6GJQsqaUBKTNV-1" source="ptOUUm3T6Vk_q6HezHhn-28" target="ptOUUm3T6Vk_q6HezHhn-31" edge="1">
          <mxGeometry relative="1" as="geometry" />
        </mxCell>
        <mxCell id="ptOUUm3T6Vk_q6HezHhn-33" value="No" style="edgeStyle=orthogonalEdgeStyle;rounded=0;orthogonalLoop=1;jettySize=auto;html=1;entryX=0;entryY=0.5;entryDx=0;entryDy=0;" parent="WIyWlLk6GJQsqaUBKTNV-1" source="ptOUUm3T6Vk_q6HezHhn-28" target="ptOUUm3T6Vk_q6HezHhn-18" edge="1">
          <mxGeometry relative="1" as="geometry">
            <mxPoint x="380" y="1080" as="targetPoint" />
          </mxGeometry>
        </mxCell>
        <mxCell id="ptOUUm3T6Vk_q6HezHhn-28" value="Over 21?" style="rhombus;whiteSpace=wrap;html=1;shadow=0;fontFamily=Helvetica;fontSize=12;align=center;strokeWidth=1;spacing=6;spacingTop=-4;fillColor=#f5f5f5;strokeColor=#666666;fontColor=#333333;" parent="WIyWlLk6GJQsqaUBKTNV-1" vertex="1">
          <mxGeometry x="180" y="890" width="100" height="80" as="geometry" />
        </mxCell>
        <mxCell id="ptOUUm3T6Vk_q6HezHhn-50" style="edgeStyle=orthogonalEdgeStyle;rounded=0;orthogonalLoop=1;jettySize=auto;html=1;exitX=0.5;exitY=1;exitDx=0;exitDy=0;exitPerimeter=0;entryX=0.5;entryY=0;entryDx=0;entryDy=0;" parent="WIyWlLk6GJQsqaUBKTNV-1" source="ptOUUm3T6Vk_q6HezHhn-31" target="ptOUUm3T6Vk_q6HezHhn-49" edge="1">
          <mxGeometry relative="1" as="geometry" />
        </mxCell>
        <mxCell id="ptOUUm3T6Vk_q6HezHhn-31" value="End game" style="strokeWidth=2;html=1;shape=mxgraph.flowchart.terminator;whiteSpace=wrap;fillColor=#ffe6cc;strokeColor=#d79b00;" parent="WIyWlLk6GJQsqaUBKTNV-1" vertex="1">
          <mxGeometry x="364" y="1030" width="100" height="60" as="geometry" />
        </mxCell>
        <mxCell id="ptOUUm3T6Vk_q6HezHhn-34" style="edgeStyle=orthogonalEdgeStyle;rounded=0;orthogonalLoop=1;jettySize=auto;html=1;exitX=0.5;exitY=1;exitDx=0;exitDy=0;entryX=0.5;entryY=0;entryDx=0;entryDy=0;" parent="WIyWlLk6GJQsqaUBKTNV-1" source="ptOUUm3T6Vk_q6HezHhn-35" target="ptOUUm3T6Vk_q6HezHhn-39" edge="1">
          <mxGeometry relative="1" as="geometry">
            <mxPoint x="710" y="620" as="targetPoint" />
          </mxGeometry>
        </mxCell>
        <mxCell id="ptOUUm3T6Vk_q6HezHhn-35" value="Take card" style="rounded=1;whiteSpace=wrap;html=1;fontSize=12;glass=0;strokeWidth=1;shadow=0;fillColor=#f5f5f5;fontColor=#333333;strokeColor=#666666;" parent="WIyWlLk6GJQsqaUBKTNV-1" vertex="1">
          <mxGeometry x="650" y="530" width="120" height="40" as="geometry" />
        </mxCell>
        <mxCell id="ptOUUm3T6Vk_q6HezHhn-38" style="edgeStyle=orthogonalEdgeStyle;rounded=0;orthogonalLoop=1;jettySize=auto;html=1;exitX=0.5;exitY=1;exitDx=0;exitDy=0;entryX=0.5;entryY=0;entryDx=0;entryDy=0;" parent="WIyWlLk6GJQsqaUBKTNV-1" source="ptOUUm3T6Vk_q6HezHhn-39" target="ptOUUm3T6Vk_q6HezHhn-42" edge="1">
          <mxGeometry relative="1" as="geometry">
            <mxPoint x="710" y="800" as="targetPoint" />
          </mxGeometry>
        </mxCell>
        <mxCell id="ptOUUm3T6Vk_q6HezHhn-39" value="Calculate current points" style="rounded=1;whiteSpace=wrap;html=1;fontSize=12;glass=0;strokeWidth=1;shadow=0;fillColor=#f5f5f5;fontColor=#333333;strokeColor=#666666;" parent="WIyWlLk6GJQsqaUBKTNV-1" vertex="1">
          <mxGeometry x="650" y="710" width="120" height="40" as="geometry" />
        </mxCell>
        <mxCell id="ptOUUm3T6Vk_q6HezHhn-45" value="Yes" style="edgeStyle=orthogonalEdgeStyle;rounded=0;orthogonalLoop=1;jettySize=auto;html=1;exitX=0.5;exitY=1;exitDx=0;exitDy=0;entryX=1;entryY=0.5;entryDx=0;entryDy=0;entryPerimeter=0;" parent="WIyWlLk6GJQsqaUBKTNV-1" source="ptOUUm3T6Vk_q6HezHhn-42" target="ptOUUm3T6Vk_q6HezHhn-31" edge="1">
          <mxGeometry relative="1" as="geometry" />
        </mxCell>
        <mxCell id="ptOUUm3T6Vk_q6HezHhn-46" value="No" style="edgeStyle=orthogonalEdgeStyle;rounded=0;orthogonalLoop=1;jettySize=auto;html=1;exitX=0;exitY=0.5;exitDx=0;exitDy=0;entryX=1;entryY=0.5;entryDx=0;entryDy=0;" parent="WIyWlLk6GJQsqaUBKTNV-1" source="ptOUUm3T6Vk_q6HezHhn-42" target="ptOUUm3T6Vk_q6HezHhn-44" edge="1">
          <mxGeometry relative="1" as="geometry" />
        </mxCell>
        <mxCell id="ptOUUm3T6Vk_q6HezHhn-42" value="Over 21?" style="rhombus;whiteSpace=wrap;html=1;shadow=0;fontFamily=Helvetica;fontSize=12;align=center;strokeWidth=1;spacing=6;spacingTop=-4;fillColor=#f5f5f5;strokeColor=#666666;fontColor=#333333;" parent="WIyWlLk6GJQsqaUBKTNV-1" vertex="1">
          <mxGeometry x="660" y="890" width="100" height="80" as="geometry" />
        </mxCell>
        <mxCell id="ptOUUm3T6Vk_q6HezHhn-47" value="Continue" style="edgeStyle=orthogonalEdgeStyle;rounded=0;orthogonalLoop=1;jettySize=auto;html=1;exitX=0.5;exitY=0;exitDx=0;exitDy=0;entryX=0;entryY=0.5;entryDx=0;entryDy=0;" parent="WIyWlLk6GJQsqaUBKTNV-1" source="ptOUUm3T6Vk_q6HezHhn-44" target="ptOUUm3T6Vk_q6HezHhn-35" edge="1">
          <mxGeometry relative="1" as="geometry" />
        </mxCell>
        <mxCell id="ptOUUm3T6Vk_q6HezHhn-48" value="Stop" style="edgeStyle=orthogonalEdgeStyle;rounded=0;orthogonalLoop=1;jettySize=auto;html=1;exitX=0.5;exitY=1;exitDx=0;exitDy=0;entryX=0.71;entryY=0.017;entryDx=0;entryDy=0;entryPerimeter=0;" parent="WIyWlLk6GJQsqaUBKTNV-1" source="ptOUUm3T6Vk_q6HezHhn-44" target="ptOUUm3T6Vk_q6HezHhn-31" edge="1">
          <mxGeometry relative="1" as="geometry" />
        </mxCell>
        <mxCell id="ptOUUm3T6Vk_q6HezHhn-44" value="Stop or continue?" style="rhombus;whiteSpace=wrap;html=1;shadow=0;fontFamily=Helvetica;fontSize=12;align=center;strokeWidth=1;spacing=6;spacingTop=-4;fillColor=#f5f5f5;strokeColor=#666666;fontColor=#333333;" parent="WIyWlLk6GJQsqaUBKTNV-1" vertex="1">
          <mxGeometry x="510" y="890" width="100" height="80" as="geometry" />
        </mxCell>
        <mxCell id="ptOUUm3T6Vk_q6HezHhn-55" style="edgeStyle=orthogonalEdgeStyle;rounded=0;orthogonalLoop=1;jettySize=auto;html=1;exitX=0.5;exitY=1;exitDx=0;exitDy=0;entryX=0.5;entryY=0;entryDx=0;entryDy=0;" parent="WIyWlLk6GJQsqaUBKTNV-1" source="ptOUUm3T6Vk_q6HezHhn-49" target="ptOUUm3T6Vk_q6HezHhn-51" edge="1">
          <mxGeometry relative="1" as="geometry" />
        </mxCell>
        <mxCell id="ptOUUm3T6Vk_q6HezHhn-49" value="Determine winner" style="rounded=1;whiteSpace=wrap;html=1;fontSize=12;glass=0;strokeWidth=1;shadow=0;fillColor=#f5f5f5;fontColor=#333333;strokeColor=#666666;" parent="WIyWlLk6GJQsqaUBKTNV-1" vertex="1">
          <mxGeometry x="354" y="1140" width="120" height="40" as="geometry" />
        </mxCell>
        <mxCell id="ptOUUm3T6Vk_q6HezHhn-56" style="edgeStyle=orthogonalEdgeStyle;rounded=0;orthogonalLoop=1;jettySize=auto;html=1;exitX=0.5;exitY=1;exitDx=0;exitDy=0;entryX=0.5;entryY=0;entryDx=0;entryDy=0;" parent="WIyWlLk6GJQsqaUBKTNV-1" source="ptOUUm3T6Vk_q6HezHhn-51" target="ptOUUm3T6Vk_q6HezHhn-52" edge="1">
          <mxGeometry relative="1" as="geometry" />
        </mxCell>
        <mxCell id="ptOUUm3T6Vk_q6HezHhn-51" value="Display scoreboard" style="rounded=1;whiteSpace=wrap;html=1;fontSize=12;glass=0;strokeWidth=1;shadow=0;fillColor=#f5f5f5;fontColor=#333333;strokeColor=#666666;" parent="WIyWlLk6GJQsqaUBKTNV-1" vertex="1">
          <mxGeometry x="354" y="1220" width="120" height="40" as="geometry" />
        </mxCell>
        <mxCell id="ptOUUm3T6Vk_q6HezHhn-53" value="No" style="edgeStyle=orthogonalEdgeStyle;rounded=0;orthogonalLoop=1;jettySize=auto;html=1;exitX=0.5;exitY=1;exitDx=0;exitDy=0;entryX=0.5;entryY=0;entryDx=0;entryDy=0;entryPerimeter=0;" parent="WIyWlLk6GJQsqaUBKTNV-1" source="ptOUUm3T6Vk_q6HezHhn-52" target="ptOUUm3T6Vk_q6HezHhn-54" edge="1">
          <mxGeometry relative="1" as="geometry">
            <mxPoint x="530" y="1350" as="targetPoint" />
          </mxGeometry>
        </mxCell>
        <mxCell id="ptOUUm3T6Vk_q6HezHhn-57" value="Yes" style="edgeStyle=orthogonalEdgeStyle;rounded=0;orthogonalLoop=1;jettySize=auto;html=1;exitX=0;exitY=0.5;exitDx=0;exitDy=0;entryX=-0.01;entryY=0.4;entryDx=0;entryDy=0;entryPerimeter=0;" parent="WIyWlLk6GJQsqaUBKTNV-1" source="ptOUUm3T6Vk_q6HezHhn-52" target="ptOUUm3T6Vk_q6HezHhn-9" edge="1">
          <mxGeometry x="-0.7599" relative="1" as="geometry">
            <mxPoint x="-100" y="680" as="targetPoint" />
            <Array as="points">
              <mxPoint x="100" y="1350" />
              <mxPoint x="100" y="770" />
              <mxPoint x="-130" y="770" />
              <mxPoint x="-130" y="444" />
            </Array>
            <mxPoint as="offset" />
          </mxGeometry>
        </mxCell>
        <mxCell id="ptOUUm3T6Vk_q6HezHhn-52" value="Start new game?" style="rhombus;whiteSpace=wrap;html=1;shadow=0;fontFamily=Helvetica;fontSize=12;align=center;strokeWidth=1;spacing=6;spacingTop=-4;fillColor=#f5f5f5;strokeColor=#666666;fontColor=#333333;" parent="WIyWlLk6GJQsqaUBKTNV-1" vertex="1">
          <mxGeometry x="364" y="1310" width="100" height="80" as="geometry" />
        </mxCell>
        <mxCell id="ptOUUm3T6Vk_q6HezHhn-54" value="Game over" style="strokeWidth=2;html=1;shape=mxgraph.flowchart.terminator;whiteSpace=wrap;fillColor=#f8cecc;strokeColor=#b85450;" parent="WIyWlLk6GJQsqaUBKTNV-1" vertex="1">
          <mxGeometry x="364" y="1440" width="100" height="60" as="geometry" />
        </mxCell>
        <mxCell id="ptOUUm3T6Vk_q6HezHhn-62" style="edgeStyle=orthogonalEdgeStyle;rounded=0;orthogonalLoop=1;jettySize=auto;html=1;exitX=0.5;exitY=1;exitDx=0;exitDy=0;entryX=0.5;entryY=0;entryDx=0;entryDy=0;" parent="WIyWlLk6GJQsqaUBKTNV-1" source="ptOUUm3T6Vk_q6HezHhn-58" target="ptOUUm3T6Vk_q6HezHhn-59" edge="1">
          <mxGeometry relative="1" as="geometry" />
        </mxCell>
        <mxCell id="ptOUUm3T6Vk_q6HezHhn-58" value="Prepare game" style="rounded=1;whiteSpace=wrap;html=1;fontSize=12;glass=0;strokeWidth=1;shadow=0;fillColor=#f5f5f5;fontColor=#333333;strokeColor=#666666;" parent="WIyWlLk6GJQsqaUBKTNV-1" vertex="1">
          <mxGeometry x="-90" y="530" width="120" height="40" as="geometry" />
        </mxCell>
        <mxCell id="ptOUUm3T6Vk_q6HezHhn-60" style="edgeStyle=orthogonalEdgeStyle;rounded=0;orthogonalLoop=1;jettySize=auto;html=1;exitX=1;exitY=0.5;exitDx=0;exitDy=0;entryX=0;entryY=0.5;entryDx=0;entryDy=0;entryPerimeter=0;" parent="WIyWlLk6GJQsqaUBKTNV-1" source="ptOUUm3T6Vk_q6HezHhn-59" target="ptOUUm3T6Vk_q6HezHhn-11" edge="1">
          <mxGeometry relative="1" as="geometry" />
        </mxCell>
        <mxCell id="ptOUUm3T6Vk_q6HezHhn-59" value="Display game" style="rounded=1;whiteSpace=wrap;html=1;fontSize=12;glass=0;strokeWidth=1;shadow=0;fillColor=#f5f5f5;fontColor=#333333;strokeColor=#666666;" parent="WIyWlLk6GJQsqaUBKTNV-1" vertex="1">
          <mxGeometry x="-90" y="620" width="120" height="40" as="geometry" />
        </mxCell>
        <mxCell id="ptOUUm3T6Vk_q6HezHhn-66" style="edgeStyle=orthogonalEdgeStyle;rounded=0;orthogonalLoop=1;jettySize=auto;html=1;exitX=0.5;exitY=1;exitDx=0;exitDy=0;exitPerimeter=0;entryX=0.5;entryY=0;entryDx=0;entryDy=0;" parent="WIyWlLk6GJQsqaUBKTNV-1" source="ptOUUm3T6Vk_q6HezHhn-67" target="ptOUUm3T6Vk_q6HezHhn-69" edge="1">
          <mxGeometry relative="1" as="geometry" />
        </mxCell>
        <mxCell id="ptOUUm3T6Vk_q6HezHhn-67" value="Start game" style="strokeWidth=2;html=1;shape=mxgraph.flowchart.terminator;whiteSpace=wrap;fillColor=#d5e8d4;strokeColor=#82b366;" parent="WIyWlLk6GJQsqaUBKTNV-1" vertex="1">
          <mxGeometry x="-690" y="1820" width="100" height="60" as="geometry" />
        </mxCell>
        <mxCell id="ptOUUm3T6Vk_q6HezHhn-68" style="edgeStyle=orthogonalEdgeStyle;rounded=0;orthogonalLoop=1;jettySize=auto;html=1;exitX=0.5;exitY=1;exitDx=0;exitDy=0;entryX=0.5;entryY=0;entryDx=0;entryDy=0;" parent="WIyWlLk6GJQsqaUBKTNV-1" source="ptOUUm3T6Vk_q6HezHhn-69" target="ptOUUm3T6Vk_q6HezHhn-70" edge="1">
          <mxGeometry relative="1" as="geometry" />
        </mxCell>
        <mxCell id="ptOUUm3T6Vk_q6HezHhn-69" value="Prepare game" style="rounded=1;whiteSpace=wrap;html=1;fontSize=12;glass=0;strokeWidth=1;shadow=0;fillColor=#f5f5f5;fontColor=#333333;strokeColor=#666666;" parent="WIyWlLk6GJQsqaUBKTNV-1" vertex="1">
          <mxGeometry x="-700" y="1930" width="120" height="40" as="geometry" />
        </mxCell>
        <mxCell id="ptOUUm3T6Vk_q6HezHhn-83" style="edgeStyle=orthogonalEdgeStyle;rounded=0;orthogonalLoop=1;jettySize=auto;html=1;exitX=0.5;exitY=1;exitDx=0;exitDy=0;entryX=0.5;entryY=0;entryDx=0;entryDy=0;entryPerimeter=0;" parent="WIyWlLk6GJQsqaUBKTNV-1" source="ptOUUm3T6Vk_q6HezHhn-70" target="ptOUUm3T6Vk_q6HezHhn-82" edge="1">
          <mxGeometry relative="1" as="geometry" />
        </mxCell>
        <mxCell id="ptOUUm3T6Vk_q6HezHhn-70" value="Display game" style="rounded=1;whiteSpace=wrap;html=1;fontSize=12;glass=0;strokeWidth=1;shadow=0;fillColor=#f5f5f5;fontColor=#333333;strokeColor=#666666;" parent="WIyWlLk6GJQsqaUBKTNV-1" vertex="1">
          <mxGeometry x="-700" y="2020" width="120" height="40" as="geometry" />
        </mxCell>
        <mxCell id="ptOUUm3T6Vk_q6HezHhn-71" value="" style="strokeWidth=2;html=1;shape=mxgraph.flowchart.annotation_2;align=left;labelPosition=right;pointerEvents=1;" parent="WIyWlLk6GJQsqaUBKTNV-1" vertex="1">
          <mxGeometry x="-550" y="1675" width="50" height="645" as="geometry" />
        </mxCell>
        <mxCell id="ptOUUm3T6Vk_q6HezHhn-78" style="edgeStyle=orthogonalEdgeStyle;rounded=0;orthogonalLoop=1;jettySize=auto;html=1;exitX=0.5;exitY=1;exitDx=0;exitDy=0;exitPerimeter=0;entryX=0.5;entryY=0;entryDx=0;entryDy=0;" parent="WIyWlLk6GJQsqaUBKTNV-1" source="ptOUUm3T6Vk_q6HezHhn-73" target="ptOUUm3T6Vk_q6HezHhn-74" edge="1">
          <mxGeometry relative="1" as="geometry" />
        </mxCell>
        <mxCell id="ptOUUm3T6Vk_q6HezHhn-73" value="Start game" style="strokeWidth=2;html=1;shape=mxgraph.flowchart.terminator;whiteSpace=wrap;fillColor=#d5e8d4;strokeColor=#82b366;" parent="WIyWlLk6GJQsqaUBKTNV-1" vertex="1">
          <mxGeometry x="-470" y="1670" width="100" height="60" as="geometry" />
        </mxCell>
        <mxCell id="ptOUUm3T6Vk_q6HezHhn-79" style="edgeStyle=orthogonalEdgeStyle;rounded=0;orthogonalLoop=1;jettySize=auto;html=1;exitX=0.5;exitY=1;exitDx=0;exitDy=0;entryX=0.5;entryY=0;entryDx=0;entryDy=0;" parent="WIyWlLk6GJQsqaUBKTNV-1" source="ptOUUm3T6Vk_q6HezHhn-74" target="ptOUUm3T6Vk_q6HezHhn-75" edge="1">
          <mxGeometry relative="1" as="geometry" />
        </mxCell>
        <mxCell id="ptOUUm3T6Vk_q6HezHhn-74" value="Route game/21" style="rounded=1;whiteSpace=wrap;html=1;fontSize=12;glass=0;strokeWidth=1;shadow=0;fillColor=#f5f5f5;fontColor=#333333;strokeColor=#666666;" parent="WIyWlLk6GJQsqaUBKTNV-1" vertex="1">
          <mxGeometry x="-480" y="1780" width="120" height="40" as="geometry" />
        </mxCell>
        <mxCell id="ptOUUm3T6Vk_q6HezHhn-80" style="edgeStyle=orthogonalEdgeStyle;rounded=0;orthogonalLoop=1;jettySize=auto;html=1;exitX=0.5;exitY=1;exitDx=0;exitDy=0;entryX=0.5;entryY=0;entryDx=0;entryDy=0;" parent="WIyWlLk6GJQsqaUBKTNV-1" source="ptOUUm3T6Vk_q6HezHhn-75" target="ptOUUm3T6Vk_q6HezHhn-76" edge="1">
          <mxGeometry relative="1" as="geometry" />
        </mxCell>
        <mxCell id="ptOUUm3T6Vk_q6HezHhn-75" value="Create Game object" style="rounded=1;whiteSpace=wrap;html=1;fontSize=12;glass=0;strokeWidth=1;shadow=0;fillColor=#f5f5f5;fontColor=#333333;strokeColor=#666666;" parent="WIyWlLk6GJQsqaUBKTNV-1" vertex="1">
          <mxGeometry x="-480" y="1870" width="120" height="40" as="geometry" />
        </mxCell>
        <mxCell id="smCGJ6wCniHxrGbqvBY--1" style="edgeStyle=orthogonalEdgeStyle;rounded=0;orthogonalLoop=1;jettySize=auto;html=1;exitX=0.5;exitY=1;exitDx=0;exitDy=0;entryX=0.5;entryY=0;entryDx=0;entryDy=0;" parent="WIyWlLk6GJQsqaUBKTNV-1" source="ptOUUm3T6Vk_q6HezHhn-76" target="smCGJ6wCniHxrGbqvBY--0" edge="1">
          <mxGeometry relative="1" as="geometry" />
        </mxCell>
        <mxCell id="ptOUUm3T6Vk_q6HezHhn-76" value="Game::shuffle()" style="rounded=1;whiteSpace=wrap;html=1;fontSize=12;glass=0;strokeWidth=1;shadow=0;fillColor=#f5f5f5;fontColor=#333333;strokeColor=#666666;" parent="WIyWlLk6GJQsqaUBKTNV-1" vertex="1">
          <mxGeometry x="-480" y="1960" width="120" height="40" as="geometry" />
        </mxCell>
        <mxCell id="ptOUUm3T6Vk_q6HezHhn-85" style="edgeStyle=orthogonalEdgeStyle;rounded=0;orthogonalLoop=1;jettySize=auto;html=1;exitX=0.5;exitY=1;exitDx=0;exitDy=0;entryX=0.5;entryY=0;entryDx=0;entryDy=0;entryPerimeter=0;" parent="WIyWlLk6GJQsqaUBKTNV-1" source="ptOUUm3T6Vk_q6HezHhn-77" target="ptOUUm3T6Vk_q6HezHhn-84" edge="1">
          <mxGeometry relative="1" as="geometry" />
        </mxCell>
        <mxCell id="ptOUUm3T6Vk_q6HezHhn-77" value="Render (player hand, bank hand remaining cards, buttons, points)" style="rounded=1;whiteSpace=wrap;html=1;fontSize=12;glass=0;strokeWidth=1;shadow=0;fillColor=#f5f5f5;fontColor=#333333;strokeColor=#666666;" parent="WIyWlLk6GJQsqaUBKTNV-1" vertex="1">
          <mxGeometry x="-480" y="2140" width="120" height="70" as="geometry" />
        </mxCell>
        <mxCell id="ptOUUm3T6Vk_q6HezHhn-82" value="Players turn" style="strokeWidth=2;html=1;shape=mxgraph.flowchart.terminator;whiteSpace=wrap;fillColor=#dae8fc;strokeColor=#6c8ebf;" parent="WIyWlLk6GJQsqaUBKTNV-1" vertex="1">
          <mxGeometry x="-690" y="2110" width="100" height="60" as="geometry" />
        </mxCell>
        <mxCell id="ptOUUm3T6Vk_q6HezHhn-84" value="Players turn" style="strokeWidth=2;html=1;shape=mxgraph.flowchart.terminator;whiteSpace=wrap;fillColor=#dae8fc;strokeColor=#6c8ebf;" parent="WIyWlLk6GJQsqaUBKTNV-1" vertex="1">
          <mxGeometry x="-470" y="2260" width="100" height="60" as="geometry" />
        </mxCell>
        <mxCell id="ptOUUm3T6Vk_q6HezHhn-86" style="edgeStyle=orthogonalEdgeStyle;rounded=0;orthogonalLoop=1;jettySize=auto;html=1;exitX=0.5;exitY=1;exitDx=0;exitDy=0;exitPerimeter=0;entryX=0.5;entryY=0;entryDx=0;entryDy=0;" parent="WIyWlLk6GJQsqaUBKTNV-1" source="ptOUUm3T6Vk_q6HezHhn-87" target="ptOUUm3T6Vk_q6HezHhn-89" edge="1">
          <mxGeometry relative="1" as="geometry" />
        </mxCell>
        <mxCell id="ptOUUm3T6Vk_q6HezHhn-87" value="Players turn" style="strokeWidth=2;html=1;shape=mxgraph.flowchart.terminator;whiteSpace=wrap;fillColor=#dae8fc;strokeColor=#6c8ebf;" parent="WIyWlLk6GJQsqaUBKTNV-1" vertex="1">
          <mxGeometry x="133" y="2043" width="100" height="60" as="geometry" />
        </mxCell>
        <mxCell id="ptOUUm3T6Vk_q6HezHhn-88" style="edgeStyle=orthogonalEdgeStyle;rounded=0;orthogonalLoop=1;jettySize=auto;html=1;exitX=0.5;exitY=1;exitDx=0;exitDy=0;entryX=0.5;entryY=0;entryDx=0;entryDy=0;" parent="WIyWlLk6GJQsqaUBKTNV-1" source="ptOUUm3T6Vk_q6HezHhn-89" target="ptOUUm3T6Vk_q6HezHhn-91" edge="1">
          <mxGeometry relative="1" as="geometry" />
        </mxCell>
        <mxCell id="ptOUUm3T6Vk_q6HezHhn-89" value="Take card" style="rounded=1;whiteSpace=wrap;html=1;fontSize=12;glass=0;strokeWidth=1;shadow=0;fillColor=#f5f5f5;fontColor=#333333;strokeColor=#666666;" parent="WIyWlLk6GJQsqaUBKTNV-1" vertex="1">
          <mxGeometry x="123" y="2153" width="120" height="40" as="geometry" />
        </mxCell>
        <mxCell id="ptOUUm3T6Vk_q6HezHhn-90" style="edgeStyle=orthogonalEdgeStyle;rounded=0;orthogonalLoop=1;jettySize=auto;html=1;exitX=0.5;exitY=1;exitDx=0;exitDy=0;entryX=0.5;entryY=0;entryDx=0;entryDy=0;" parent="WIyWlLk6GJQsqaUBKTNV-1" source="ptOUUm3T6Vk_q6HezHhn-91" target="ptOUUm3T6Vk_q6HezHhn-95" edge="1">
          <mxGeometry relative="1" as="geometry" />
        </mxCell>
        <mxCell id="ptOUUm3T6Vk_q6HezHhn-91" value="Display card" style="rounded=1;whiteSpace=wrap;html=1;fontSize=12;glass=0;strokeWidth=1;shadow=0;fillColor=#f5f5f5;fontColor=#333333;strokeColor=#666666;" parent="WIyWlLk6GJQsqaUBKTNV-1" vertex="1">
          <mxGeometry x="123" y="2243" width="120" height="40" as="geometry" />
        </mxCell>
        <mxCell id="ptOUUm3T6Vk_q6HezHhn-92" value="Continue" style="edgeStyle=orthogonalEdgeStyle;rounded=0;orthogonalLoop=1;jettySize=auto;html=1;exitX=0.5;exitY=0;exitDx=0;exitDy=0;entryX=1;entryY=0.5;entryDx=0;entryDy=0;" parent="WIyWlLk6GJQsqaUBKTNV-1" source="ptOUUm3T6Vk_q6HezHhn-93" target="ptOUUm3T6Vk_q6HezHhn-89" edge="1">
          <mxGeometry x="-0.2857" relative="1" as="geometry">
            <Array as="points">
              <mxPoint x="363" y="2173" />
            </Array>
            <mxPoint as="offset" />
          </mxGeometry>
        </mxCell>
        <mxCell id="ptOUUm3T6Vk_q6HezHhn-93" value="Stop or continue?" style="rhombus;whiteSpace=wrap;html=1;shadow=0;fontFamily=Helvetica;fontSize=12;align=center;strokeWidth=1;spacing=6;spacingTop=-4;fillColor=#f5f5f5;strokeColor=#666666;fontColor=#333333;" parent="WIyWlLk6GJQsqaUBKTNV-1" vertex="1">
          <mxGeometry x="313" y="2513" width="100" height="80" as="geometry" />
        </mxCell>
        <mxCell id="ptOUUm3T6Vk_q6HezHhn-94" style="edgeStyle=orthogonalEdgeStyle;rounded=0;orthogonalLoop=1;jettySize=auto;html=1;exitX=0.5;exitY=1;exitDx=0;exitDy=0;entryX=0.5;entryY=0;entryDx=0;entryDy=0;" parent="WIyWlLk6GJQsqaUBKTNV-1" source="ptOUUm3T6Vk_q6HezHhn-95" target="ptOUUm3T6Vk_q6HezHhn-97" edge="1">
          <mxGeometry relative="1" as="geometry" />
        </mxCell>
        <mxCell id="ptOUUm3T6Vk_q6HezHhn-95" value="Calculate current points" style="rounded=1;whiteSpace=wrap;html=1;fontSize=12;glass=0;strokeWidth=1;shadow=0;fillColor=#f5f5f5;fontColor=#333333;strokeColor=#666666;" parent="WIyWlLk6GJQsqaUBKTNV-1" vertex="1">
          <mxGeometry x="123" y="2333" width="120" height="40" as="geometry" />
        </mxCell>
        <mxCell id="ptOUUm3T6Vk_q6HezHhn-96" style="edgeStyle=orthogonalEdgeStyle;rounded=0;orthogonalLoop=1;jettySize=auto;html=1;exitX=0.5;exitY=1;exitDx=0;exitDy=0;entryX=0.5;entryY=0;entryDx=0;entryDy=0;" parent="WIyWlLk6GJQsqaUBKTNV-1" source="ptOUUm3T6Vk_q6HezHhn-97" target="ptOUUm3T6Vk_q6HezHhn-100" edge="1">
          <mxGeometry relative="1" as="geometry" />
        </mxCell>
        <mxCell id="ptOUUm3T6Vk_q6HezHhn-97" value="Display current points" style="rounded=1;whiteSpace=wrap;html=1;fontSize=12;glass=0;strokeWidth=1;shadow=0;fillColor=#f5f5f5;fontColor=#333333;strokeColor=#666666;" parent="WIyWlLk6GJQsqaUBKTNV-1" vertex="1">
          <mxGeometry x="123" y="2423" width="120" height="40" as="geometry" />
        </mxCell>
        <mxCell id="ptOUUm3T6Vk_q6HezHhn-98" value="Yes" style="edgeStyle=orthogonalEdgeStyle;rounded=0;orthogonalLoop=1;jettySize=auto;html=1;exitX=0.5;exitY=1;exitDx=0;exitDy=0;entryX=0.5;entryY=0;entryDx=0;entryDy=0;entryPerimeter=0;" parent="WIyWlLk6GJQsqaUBKTNV-1" source="ptOUUm3T6Vk_q6HezHhn-100" target="ptOUUm3T6Vk_q6HezHhn-101" edge="1">
          <mxGeometry relative="1" as="geometry" />
        </mxCell>
        <mxCell id="ptOUUm3T6Vk_q6HezHhn-99" value="No" style="edgeStyle=orthogonalEdgeStyle;rounded=0;orthogonalLoop=1;jettySize=auto;html=1;entryX=0;entryY=0.5;entryDx=0;entryDy=0;" parent="WIyWlLk6GJQsqaUBKTNV-1" source="ptOUUm3T6Vk_q6HezHhn-100" target="ptOUUm3T6Vk_q6HezHhn-93" edge="1">
          <mxGeometry relative="1" as="geometry">
            <mxPoint x="333" y="2703" as="targetPoint" />
          </mxGeometry>
        </mxCell>
        <mxCell id="ptOUUm3T6Vk_q6HezHhn-100" value="Over 21?" style="rhombus;whiteSpace=wrap;html=1;shadow=0;fontFamily=Helvetica;fontSize=12;align=center;strokeWidth=1;spacing=6;spacingTop=-4;fillColor=#f5f5f5;strokeColor=#666666;fontColor=#333333;" parent="WIyWlLk6GJQsqaUBKTNV-1" vertex="1">
          <mxGeometry x="133" y="2513" width="100" height="80" as="geometry" />
        </mxCell>
        <mxCell id="ptOUUm3T6Vk_q6HezHhn-101" value="End game" style="strokeWidth=2;html=1;shape=mxgraph.flowchart.terminator;whiteSpace=wrap;fillColor=#ffe6cc;strokeColor=#d79b00;" parent="WIyWlLk6GJQsqaUBKTNV-1" vertex="1">
          <mxGeometry x="317" y="2653" width="100" height="60" as="geometry" />
        </mxCell>
        <mxCell id="ptOUUm3T6Vk_q6HezHhn-103" value="" style="strokeWidth=2;html=1;shape=mxgraph.flowchart.annotation_2;align=left;labelPosition=right;pointerEvents=1;" parent="WIyWlLk6GJQsqaUBKTNV-1" vertex="1">
          <mxGeometry x="440" y="1823" width="60" height="1197" as="geometry" />
        </mxCell>
        <mxCell id="ptOUUm3T6Vk_q6HezHhn-104" style="edgeStyle=orthogonalEdgeStyle;rounded=0;orthogonalLoop=1;jettySize=auto;html=1;exitX=0.5;exitY=1;exitDx=0;exitDy=0;exitPerimeter=0;entryX=0.5;entryY=0;entryDx=0;entryDy=0;" parent="WIyWlLk6GJQsqaUBKTNV-1" source="ptOUUm3T6Vk_q6HezHhn-105" edge="1">
          <mxGeometry relative="1" as="geometry">
            <mxPoint x="670" y="1933" as="targetPoint" />
          </mxGeometry>
        </mxCell>
        <mxCell id="ptOUUm3T6Vk_q6HezHhn-105" value="Players turn" style="strokeWidth=2;html=1;shape=mxgraph.flowchart.terminator;whiteSpace=wrap;fillColor=#dae8fc;strokeColor=#6c8ebf;" parent="WIyWlLk6GJQsqaUBKTNV-1" vertex="1">
          <mxGeometry x="620" y="1823" width="100" height="60" as="geometry" />
        </mxCell>
        <mxCell id="ptOUUm3T6Vk_q6HezHhn-109" style="edgeStyle=orthogonalEdgeStyle;rounded=0;orthogonalLoop=1;jettySize=auto;html=1;exitX=0.5;exitY=1;exitDx=0;exitDy=0;entryX=0.5;entryY=0;entryDx=0;entryDy=0;" parent="WIyWlLk6GJQsqaUBKTNV-1" source="ptOUUm3T6Vk_q6HezHhn-107" target="ptOUUm3T6Vk_q6HezHhn-108" edge="1">
          <mxGeometry relative="1" as="geometry" />
        </mxCell>
        <mxCell id="ptOUUm3T6Vk_q6HezHhn-107" value="User presses &lt;br&gt;take card button" style="shape=parallelogram;html=1;strokeWidth=1;perimeter=parallelogramPerimeter;whiteSpace=wrap;rounded=1;arcSize=12;size=0.23;fillColor=#f5f5f5;fontColor=#333333;strokeColor=#666666;" parent="WIyWlLk6GJQsqaUBKTNV-1" vertex="1">
          <mxGeometry x="605" y="1933" width="130" height="60" as="geometry" />
        </mxCell>
        <mxCell id="ptOUUm3T6Vk_q6HezHhn-115" style="edgeStyle=orthogonalEdgeStyle;rounded=0;orthogonalLoop=1;jettySize=auto;html=1;exitX=0.5;exitY=1;exitDx=0;exitDy=0;entryX=0.5;entryY=0;entryDx=0;entryDy=0;" parent="WIyWlLk6GJQsqaUBKTNV-1" source="ptOUUm3T6Vk_q6HezHhn-108" target="ptOUUm3T6Vk_q6HezHhn-112" edge="1">
          <mxGeometry relative="1" as="geometry" />
        </mxCell>
        <mxCell id="ptOUUm3T6Vk_q6HezHhn-108" value="POST" style="rounded=1;whiteSpace=wrap;html=1;fontSize=12;glass=0;strokeWidth=1;shadow=0;fillColor=#f5f5f5;fontColor=#333333;strokeColor=#666666;" parent="WIyWlLk6GJQsqaUBKTNV-1" vertex="1">
          <mxGeometry x="610" y="2043" width="120" height="40" as="geometry" />
        </mxCell>
        <mxCell id="ptOUUm3T6Vk_q6HezHhn-120" style="edgeStyle=orthogonalEdgeStyle;rounded=0;orthogonalLoop=1;jettySize=auto;html=1;exitX=0.5;exitY=1;exitDx=0;exitDy=0;entryX=0.5;entryY=0;entryDx=0;entryDy=0;" parent="WIyWlLk6GJQsqaUBKTNV-1" source="ptOUUm3T6Vk_q6HezHhn-110" target="ptOUUm3T6Vk_q6HezHhn-119" edge="1">
          <mxGeometry relative="1" as="geometry" />
        </mxCell>
        <mxCell id="ptOUUm3T6Vk_q6HezHhn-110" value="Game::playerDraw()" style="rounded=1;whiteSpace=wrap;html=1;fontSize=12;glass=0;strokeWidth=1;shadow=0;fillColor=#f5f5f5;fontColor=#333333;strokeColor=#666666;" parent="WIyWlLk6GJQsqaUBKTNV-1" vertex="1">
          <mxGeometry x="610" y="2223" width="120" height="40" as="geometry" />
        </mxCell>
        <mxCell id="ptOUUm3T6Vk_q6HezHhn-118" style="edgeStyle=orthogonalEdgeStyle;rounded=0;orthogonalLoop=1;jettySize=auto;html=1;exitX=0.5;exitY=1;exitDx=0;exitDy=0;entryX=0.5;entryY=0;entryDx=0;entryDy=0;" parent="WIyWlLk6GJQsqaUBKTNV-1" source="smCGJ6wCniHxrGbqvBY--4" target="ptOUUm3T6Vk_q6HezHhn-114" edge="1">
          <mxGeometry relative="1" as="geometry" />
        </mxCell>
        <mxCell id="smCGJ6wCniHxrGbqvBY--5" style="edgeStyle=orthogonalEdgeStyle;rounded=0;orthogonalLoop=1;jettySize=auto;html=1;exitX=0.5;exitY=1;exitDx=0;exitDy=0;entryX=0.5;entryY=0;entryDx=0;entryDy=0;" parent="WIyWlLk6GJQsqaUBKTNV-1" source="ptOUUm3T6Vk_q6HezHhn-111" target="smCGJ6wCniHxrGbqvBY--4" edge="1">
          <mxGeometry relative="1" as="geometry" />
        </mxCell>
        <mxCell id="ptOUUm3T6Vk_q6HezHhn-111" value="Redirect route game/21" style="rounded=1;whiteSpace=wrap;html=1;fontSize=12;glass=0;strokeWidth=1;shadow=0;fillColor=#f5f5f5;fontColor=#333333;strokeColor=#666666;" parent="WIyWlLk6GJQsqaUBKTNV-1" vertex="1">
          <mxGeometry x="610" y="2630" width="120" height="40" as="geometry" />
        </mxCell>
        <mxCell id="ptOUUm3T6Vk_q6HezHhn-116" style="edgeStyle=orthogonalEdgeStyle;rounded=0;orthogonalLoop=1;jettySize=auto;html=1;exitX=0.5;exitY=1;exitDx=0;exitDy=0;entryX=0.5;entryY=0;entryDx=0;entryDy=0;" parent="WIyWlLk6GJQsqaUBKTNV-1" source="ptOUUm3T6Vk_q6HezHhn-112" target="ptOUUm3T6Vk_q6HezHhn-110" edge="1">
          <mxGeometry relative="1" as="geometry" />
        </mxCell>
        <mxCell id="ptOUUm3T6Vk_q6HezHhn-112" value="Create Game object" style="rounded=1;whiteSpace=wrap;html=1;fontSize=12;glass=0;strokeWidth=1;shadow=0;fillColor=#f5f5f5;fontColor=#333333;strokeColor=#666666;" parent="WIyWlLk6GJQsqaUBKTNV-1" vertex="1">
          <mxGeometry x="610" y="2133" width="120" height="40" as="geometry" />
        </mxCell>
        <mxCell id="ptOUUm3T6Vk_q6HezHhn-131" style="edgeStyle=orthogonalEdgeStyle;rounded=0;orthogonalLoop=1;jettySize=auto;html=1;exitX=0.5;exitY=1;exitDx=0;exitDy=0;entryX=0.5;entryY=0;entryDx=0;entryDy=0;" parent="WIyWlLk6GJQsqaUBKTNV-1" source="ptOUUm3T6Vk_q6HezHhn-114" target="ptOUUm3T6Vk_q6HezHhn-130" edge="1">
          <mxGeometry relative="1" as="geometry" />
        </mxCell>
        <mxCell id="ptOUUm3T6Vk_q6HezHhn-114" value="Render (player hand, bank hand remaining cards, buttons, points)" style="rounded=1;whiteSpace=wrap;html=1;fontSize=12;glass=0;strokeWidth=1;shadow=0;fillColor=#f5f5f5;fontColor=#333333;strokeColor=#666666;" parent="WIyWlLk6GJQsqaUBKTNV-1" vertex="1">
          <mxGeometry x="610" y="2820" width="120" height="70" as="geometry" />
        </mxCell>
        <mxCell id="ptOUUm3T6Vk_q6HezHhn-119" value="Game::&lt;br&gt;calculatePoints()" style="rounded=1;whiteSpace=wrap;html=1;fontSize=12;glass=0;strokeWidth=1;shadow=0;fillColor=#f5f5f5;fontColor=#333333;strokeColor=#666666;" parent="WIyWlLk6GJQsqaUBKTNV-1" vertex="1">
          <mxGeometry x="610" y="2313" width="120" height="40" as="geometry" />
        </mxCell>
        <mxCell id="ptOUUm3T6Vk_q6HezHhn-127" value="Yes" style="edgeStyle=orthogonalEdgeStyle;rounded=0;orthogonalLoop=1;jettySize=auto;html=1;exitX=1;exitY=0.5;exitDx=0;exitDy=0;entryX=0.5;entryY=0;entryDx=0;entryDy=0;entryPerimeter=0;" parent="WIyWlLk6GJQsqaUBKTNV-1" source="ptOUUm3T6Vk_q6HezHhn-122" target="ptOUUm3T6Vk_q6HezHhn-124" edge="1">
          <mxGeometry x="-0.3042" relative="1" as="geometry">
            <mxPoint as="offset" />
          </mxGeometry>
        </mxCell>
        <mxCell id="ptOUUm3T6Vk_q6HezHhn-129" value="No" style="edgeStyle=orthogonalEdgeStyle;rounded=0;orthogonalLoop=1;jettySize=auto;html=1;exitX=0.5;exitY=1;exitDx=0;exitDy=0;entryX=0.5;entryY=0;entryDx=0;entryDy=0;" parent="WIyWlLk6GJQsqaUBKTNV-1" source="ptOUUm3T6Vk_q6HezHhn-122" target="ptOUUm3T6Vk_q6HezHhn-111" edge="1">
          <mxGeometry relative="1" as="geometry">
            <Array as="points">
              <mxPoint x="670" y="2600" />
              <mxPoint x="670" y="2600" />
            </Array>
          </mxGeometry>
        </mxCell>
        <mxCell id="ptOUUm3T6Vk_q6HezHhn-122" value="Over 21? &lt;br&gt;(isFull)" style="rhombus;whiteSpace=wrap;html=1;shadow=0;fontFamily=Helvetica;fontSize=12;align=center;strokeWidth=1;spacing=6;spacingTop=-4;fillColor=#f5f5f5;strokeColor=#666666;fontColor=#333333;" parent="WIyWlLk6GJQsqaUBKTNV-1" vertex="1">
          <mxGeometry x="620" y="2500" width="100" height="80" as="geometry" />
        </mxCell>
        <mxCell id="ptOUUm3T6Vk_q6HezHhn-124" value="End game" style="strokeWidth=2;html=1;shape=mxgraph.flowchart.terminator;whiteSpace=wrap;fillColor=#ffe6cc;strokeColor=#d79b00;" parent="WIyWlLk6GJQsqaUBKTNV-1" vertex="1">
          <mxGeometry x="820" y="2620" width="100" height="60" as="geometry" />
        </mxCell>
        <mxCell id="ptOUUm3T6Vk_q6HezHhn-132" value="Continue" style="edgeStyle=orthogonalEdgeStyle;rounded=0;orthogonalLoop=1;jettySize=auto;html=1;exitX=0;exitY=0.5;exitDx=0;exitDy=0;entryX=0;entryY=0.5;entryDx=0;entryDy=0;" parent="WIyWlLk6GJQsqaUBKTNV-1" source="ptOUUm3T6Vk_q6HezHhn-130" target="ptOUUm3T6Vk_q6HezHhn-107" edge="1">
          <mxGeometry relative="1" as="geometry">
            <Array as="points">
              <mxPoint x="570" y="2980" />
              <mxPoint x="570" y="1963" />
            </Array>
          </mxGeometry>
        </mxCell>
        <mxCell id="DQUW2nhXrTQ-H9Uuajvi-1" style="edgeStyle=orthogonalEdgeStyle;rounded=0;orthogonalLoop=1;jettySize=auto;html=1;exitX=1;exitY=0.5;exitDx=0;exitDy=0;entryX=0;entryY=0.5;entryDx=0;entryDy=0;" parent="WIyWlLk6GJQsqaUBKTNV-1" source="ptOUUm3T6Vk_q6HezHhn-130" target="DQUW2nhXrTQ-H9Uuajvi-0" edge="1">
          <mxGeometry relative="1" as="geometry" />
        </mxCell>
        <mxCell id="ptOUUm3T6Vk_q6HezHhn-130" value="Stop or continue?" style="rhombus;whiteSpace=wrap;html=1;shadow=0;fontFamily=Helvetica;fontSize=12;align=center;strokeWidth=1;spacing=6;spacingTop=-4;fillColor=#f5f5f5;strokeColor=#666666;fontColor=#333333;" parent="WIyWlLk6GJQsqaUBKTNV-1" vertex="1">
          <mxGeometry x="620" y="2940" width="100" height="80" as="geometry" />
        </mxCell>
        <mxCell id="smCGJ6wCniHxrGbqvBY--2" style="edgeStyle=orthogonalEdgeStyle;rounded=0;orthogonalLoop=1;jettySize=auto;html=1;exitX=0.5;exitY=1;exitDx=0;exitDy=0;entryX=0.5;entryY=0;entryDx=0;entryDy=0;" parent="WIyWlLk6GJQsqaUBKTNV-1" source="smCGJ6wCniHxrGbqvBY--0" target="ptOUUm3T6Vk_q6HezHhn-77" edge="1">
          <mxGeometry relative="1" as="geometry" />
        </mxCell>
        <mxCell id="smCGJ6wCniHxrGbqvBY--0" value="Game::&lt;br&gt;getGameState()" style="rounded=1;whiteSpace=wrap;html=1;fontSize=12;glass=0;strokeWidth=1;shadow=0;fillColor=#f5f5f5;fontColor=#333333;strokeColor=#666666;" parent="WIyWlLk6GJQsqaUBKTNV-1" vertex="1">
          <mxGeometry x="-480" y="2050" width="120" height="40" as="geometry" />
        </mxCell>
        <mxCell id="smCGJ6wCniHxrGbqvBY--4" value="Game::&lt;br&gt;getGameState()" style="rounded=1;whiteSpace=wrap;html=1;fontSize=12;glass=0;strokeWidth=1;shadow=0;fillColor=#f5f5f5;fontColor=#333333;strokeColor=#666666;" parent="WIyWlLk6GJQsqaUBKTNV-1" vertex="1">
          <mxGeometry x="610" y="2730" width="120" height="40" as="geometry" />
        </mxCell>
        <mxCell id="smCGJ6wCniHxrGbqvBY--7" value="" style="edgeStyle=orthogonalEdgeStyle;rounded=0;orthogonalLoop=1;jettySize=auto;html=1;exitX=0.5;exitY=1;exitDx=0;exitDy=0;entryX=0.5;entryY=0;entryDx=0;entryDy=0;" parent="WIyWlLk6GJQsqaUBKTNV-1" source="ptOUUm3T6Vk_q6HezHhn-119" target="smCGJ6wCniHxrGbqvBY--6" edge="1">
          <mxGeometry relative="1" as="geometry">
            <mxPoint x="670" y="2353" as="sourcePoint" />
            <mxPoint x="670" y="2513" as="targetPoint" />
          </mxGeometry>
        </mxCell>
        <mxCell id="smCGJ6wCniHxrGbqvBY--8" style="edgeStyle=orthogonalEdgeStyle;rounded=0;orthogonalLoop=1;jettySize=auto;html=1;exitX=0.5;exitY=1;exitDx=0;exitDy=0;entryX=0.5;entryY=0;entryDx=0;entryDy=0;" parent="WIyWlLk6GJQsqaUBKTNV-1" source="smCGJ6wCniHxrGbqvBY--6" target="ptOUUm3T6Vk_q6HezHhn-122" edge="1">
          <mxGeometry relative="1" as="geometry" />
        </mxCell>
        <mxCell id="smCGJ6wCniHxrGbqvBY--6" value="Game::&lt;br&gt;isFull()" style="rounded=1;whiteSpace=wrap;html=1;fontSize=12;glass=0;strokeWidth=1;shadow=0;fillColor=#f5f5f5;fontColor=#333333;strokeColor=#666666;" parent="WIyWlLk6GJQsqaUBKTNV-1" vertex="1">
          <mxGeometry x="610" y="2410" width="120" height="40" as="geometry" />
        </mxCell>
        <mxCell id="DQUW2nhXrTQ-H9Uuajvi-3" style="edgeStyle=orthogonalEdgeStyle;rounded=0;orthogonalLoop=1;jettySize=auto;html=1;exitX=0.5;exitY=0;exitDx=0;exitDy=0;entryX=0.5;entryY=1;entryDx=0;entryDy=0;entryPerimeter=0;" parent="WIyWlLk6GJQsqaUBKTNV-1" source="DQUW2nhXrTQ-H9Uuajvi-0" target="DQUW2nhXrTQ-H9Uuajvi-2" edge="1">
          <mxGeometry relative="1" as="geometry" />
        </mxCell>
        <mxCell id="DQUW2nhXrTQ-H9Uuajvi-0" value="User presses &lt;br&gt;stop button" style="shape=parallelogram;html=1;strokeWidth=1;perimeter=parallelogramPerimeter;whiteSpace=wrap;rounded=1;arcSize=12;size=0.23;fillColor=#f5f5f5;fontColor=#333333;strokeColor=#666666;" parent="WIyWlLk6GJQsqaUBKTNV-1" vertex="1">
          <mxGeometry x="805" y="2950" width="130" height="60" as="geometry" />
        </mxCell>
        <mxCell id="DQUW2nhXrTQ-H9Uuajvi-2" value="Banks turn" style="strokeWidth=2;html=1;shape=mxgraph.flowchart.terminator;whiteSpace=wrap;fillColor=#fff2cc;strokeColor=#d6b656;" parent="WIyWlLk6GJQsqaUBKTNV-1" vertex="1">
          <mxGeometry x="820" y="2820" width="100" height="60" as="geometry" />
        </mxCell>
        <mxCell id="DQUW2nhXrTQ-H9Uuajvi-18" style="edgeStyle=orthogonalEdgeStyle;rounded=0;orthogonalLoop=1;jettySize=auto;html=1;exitX=0.5;exitY=1;exitDx=0;exitDy=0;exitPerimeter=0;entryX=0.5;entryY=0;entryDx=0;entryDy=0;" parent="WIyWlLk6GJQsqaUBKTNV-1" source="DQUW2nhXrTQ-H9Uuajvi-19" target="DQUW2nhXrTQ-H9Uuajvi-22" edge="1">
          <mxGeometry relative="1" as="geometry" />
        </mxCell>
        <mxCell id="DQUW2nhXrTQ-H9Uuajvi-19" value="Banks turn" style="strokeWidth=2;html=1;shape=mxgraph.flowchart.terminator;whiteSpace=wrap;fillColor=#fff2cc;strokeColor=#d6b656;" parent="WIyWlLk6GJQsqaUBKTNV-1" vertex="1">
          <mxGeometry x="1326" y="2063" width="100" height="60" as="geometry" />
        </mxCell>
        <mxCell id="DQUW2nhXrTQ-H9Uuajvi-20" value="End game" style="strokeWidth=2;html=1;shape=mxgraph.flowchart.terminator;whiteSpace=wrap;fillColor=#ffe6cc;strokeColor=#d79b00;" parent="WIyWlLk6GJQsqaUBKTNV-1" vertex="1">
          <mxGeometry x="1030" y="2673" width="100" height="60" as="geometry" />
        </mxCell>
        <mxCell id="DQUW2nhXrTQ-H9Uuajvi-21" style="edgeStyle=orthogonalEdgeStyle;rounded=0;orthogonalLoop=1;jettySize=auto;html=1;exitX=0.5;exitY=1;exitDx=0;exitDy=0;entryX=0.5;entryY=0;entryDx=0;entryDy=0;" parent="WIyWlLk6GJQsqaUBKTNV-1" source="DQUW2nhXrTQ-H9Uuajvi-22" target="DQUW2nhXrTQ-H9Uuajvi-26" edge="1">
          <mxGeometry relative="1" as="geometry">
            <mxPoint x="1376" y="2263" as="targetPoint" />
          </mxGeometry>
        </mxCell>
        <mxCell id="DQUW2nhXrTQ-H9Uuajvi-22" value="Take card" style="rounded=1;whiteSpace=wrap;html=1;fontSize=12;glass=0;strokeWidth=1;shadow=0;fillColor=#f5f5f5;fontColor=#333333;strokeColor=#666666;" parent="WIyWlLk6GJQsqaUBKTNV-1" vertex="1">
          <mxGeometry x="1316" y="2173" width="120" height="40" as="geometry" />
        </mxCell>
        <mxCell id="DQUW2nhXrTQ-H9Uuajvi-25" style="edgeStyle=orthogonalEdgeStyle;rounded=0;orthogonalLoop=1;jettySize=auto;html=1;exitX=0.5;exitY=1;exitDx=0;exitDy=0;entryX=0.5;entryY=0;entryDx=0;entryDy=0;" parent="WIyWlLk6GJQsqaUBKTNV-1" source="DQUW2nhXrTQ-H9Uuajvi-26" target="DQUW2nhXrTQ-H9Uuajvi-31" edge="1">
          <mxGeometry relative="1" as="geometry">
            <mxPoint x="1376" y="2443" as="targetPoint" />
          </mxGeometry>
        </mxCell>
        <mxCell id="DQUW2nhXrTQ-H9Uuajvi-26" value="Calculate current points" style="rounded=1;whiteSpace=wrap;html=1;fontSize=12;glass=0;strokeWidth=1;shadow=0;fillColor=#f5f5f5;fontColor=#333333;strokeColor=#666666;" parent="WIyWlLk6GJQsqaUBKTNV-1" vertex="1">
          <mxGeometry x="1316" y="2353" width="120" height="40" as="geometry" />
        </mxCell>
        <mxCell id="DQUW2nhXrTQ-H9Uuajvi-29" value="Yes" style="edgeStyle=orthogonalEdgeStyle;rounded=0;orthogonalLoop=1;jettySize=auto;html=1;exitX=0.5;exitY=1;exitDx=0;exitDy=0;entryX=1;entryY=0.5;entryDx=0;entryDy=0;entryPerimeter=0;" parent="WIyWlLk6GJQsqaUBKTNV-1" source="DQUW2nhXrTQ-H9Uuajvi-31" target="DQUW2nhXrTQ-H9Uuajvi-20" edge="1">
          <mxGeometry relative="1" as="geometry" />
        </mxCell>
        <mxCell id="DQUW2nhXrTQ-H9Uuajvi-30" value="No" style="edgeStyle=orthogonalEdgeStyle;rounded=0;orthogonalLoop=1;jettySize=auto;html=1;exitX=0;exitY=0.5;exitDx=0;exitDy=0;entryX=1;entryY=0.5;entryDx=0;entryDy=0;" parent="WIyWlLk6GJQsqaUBKTNV-1" source="DQUW2nhXrTQ-H9Uuajvi-31" target="DQUW2nhXrTQ-H9Uuajvi-34" edge="1">
          <mxGeometry relative="1" as="geometry" />
        </mxCell>
        <mxCell id="DQUW2nhXrTQ-H9Uuajvi-31" value="Over 21?" style="rhombus;whiteSpace=wrap;html=1;shadow=0;fontFamily=Helvetica;fontSize=12;align=center;strokeWidth=1;spacing=6;spacingTop=-4;fillColor=#f5f5f5;strokeColor=#666666;fontColor=#333333;" parent="WIyWlLk6GJQsqaUBKTNV-1" vertex="1">
          <mxGeometry x="1326" y="2533" width="100" height="80" as="geometry" />
        </mxCell>
        <mxCell id="DQUW2nhXrTQ-H9Uuajvi-32" value="Continue" style="edgeStyle=orthogonalEdgeStyle;rounded=0;orthogonalLoop=1;jettySize=auto;html=1;exitX=0.5;exitY=0;exitDx=0;exitDy=0;entryX=0;entryY=0.5;entryDx=0;entryDy=0;" parent="WIyWlLk6GJQsqaUBKTNV-1" source="DQUW2nhXrTQ-H9Uuajvi-34" target="DQUW2nhXrTQ-H9Uuajvi-22" edge="1">
          <mxGeometry relative="1" as="geometry" />
        </mxCell>
        <mxCell id="DQUW2nhXrTQ-H9Uuajvi-33" value="Stop" style="edgeStyle=orthogonalEdgeStyle;rounded=0;orthogonalLoop=1;jettySize=auto;html=1;exitX=0.5;exitY=1;exitDx=0;exitDy=0;entryX=0.71;entryY=0.017;entryDx=0;entryDy=0;entryPerimeter=0;" parent="WIyWlLk6GJQsqaUBKTNV-1" source="DQUW2nhXrTQ-H9Uuajvi-34" target="DQUW2nhXrTQ-H9Uuajvi-20" edge="1">
          <mxGeometry relative="1" as="geometry" />
        </mxCell>
        <mxCell id="DQUW2nhXrTQ-H9Uuajvi-34" value="Stop or continue?" style="rhombus;whiteSpace=wrap;html=1;shadow=0;fontFamily=Helvetica;fontSize=12;align=center;strokeWidth=1;spacing=6;spacingTop=-4;fillColor=#f5f5f5;strokeColor=#666666;fontColor=#333333;" parent="WIyWlLk6GJQsqaUBKTNV-1" vertex="1">
          <mxGeometry x="1176" y="2533" width="100" height="80" as="geometry" />
        </mxCell>
        <mxCell id="DQUW2nhXrTQ-H9Uuajvi-38" value="" style="strokeWidth=2;html=1;shape=mxgraph.flowchart.annotation_2;align=left;labelPosition=right;pointerEvents=1;" parent="WIyWlLk6GJQsqaUBKTNV-1" vertex="1">
          <mxGeometry x="1480" y="2000" width="60" height="860" as="geometry" />
        </mxCell>
        <mxCell id="DQUW2nhXrTQ-H9Uuajvi-60" style="edgeStyle=orthogonalEdgeStyle;rounded=0;orthogonalLoop=1;jettySize=auto;html=1;exitX=0.5;exitY=1;exitDx=0;exitDy=0;exitPerimeter=0;entryX=0.5;entryY=0;entryDx=0;entryDy=0;" parent="WIyWlLk6GJQsqaUBKTNV-1" source="DQUW2nhXrTQ-H9Uuajvi-39" target="DQUW2nhXrTQ-H9Uuajvi-40" edge="1">
          <mxGeometry relative="1" as="geometry" />
        </mxCell>
        <mxCell id="DQUW2nhXrTQ-H9Uuajvi-39" value="Banks turn" style="strokeWidth=2;html=1;shape=mxgraph.flowchart.terminator;whiteSpace=wrap;fillColor=#fff2cc;strokeColor=#d6b656;" parent="WIyWlLk6GJQsqaUBKTNV-1" vertex="1">
          <mxGeometry x="1630" y="2002.25" width="100" height="60" as="geometry" />
        </mxCell>
        <mxCell id="DQUW2nhXrTQ-H9Uuajvi-61" style="edgeStyle=orthogonalEdgeStyle;rounded=0;orthogonalLoop=1;jettySize=auto;html=1;exitX=0.5;exitY=1;exitDx=0;exitDy=0;entryX=0.5;entryY=0;entryDx=0;entryDy=0;" parent="WIyWlLk6GJQsqaUBKTNV-1" source="DQUW2nhXrTQ-H9Uuajvi-40" target="DQUW2nhXrTQ-H9Uuajvi-41" edge="1">
          <mxGeometry relative="1" as="geometry" />
        </mxCell>
        <mxCell id="DQUW2nhXrTQ-H9Uuajvi-40" value="POST" style="rounded=1;whiteSpace=wrap;html=1;fontSize=12;glass=0;strokeWidth=1;shadow=0;fillColor=#f5f5f5;fontColor=#333333;strokeColor=#666666;" parent="WIyWlLk6GJQsqaUBKTNV-1" vertex="1">
          <mxGeometry x="1620" y="2110.75" width="120" height="40" as="geometry" />
        </mxCell>
        <mxCell id="DQUW2nhXrTQ-H9Uuajvi-45" style="edgeStyle=orthogonalEdgeStyle;rounded=0;orthogonalLoop=1;jettySize=auto;html=1;exitX=0.5;exitY=1;exitDx=0;exitDy=0;entryX=0.5;entryY=0;entryDx=0;entryDy=0;" parent="WIyWlLk6GJQsqaUBKTNV-1" source="DQUW2nhXrTQ-H9Uuajvi-41" target="DQUW2nhXrTQ-H9Uuajvi-42" edge="1">
          <mxGeometry relative="1" as="geometry" />
        </mxCell>
        <mxCell id="DQUW2nhXrTQ-H9Uuajvi-41" value="Create Game object" style="rounded=1;whiteSpace=wrap;html=1;fontSize=12;glass=0;strokeWidth=1;shadow=0;fillColor=#f5f5f5;fontColor=#333333;strokeColor=#666666;" parent="WIyWlLk6GJQsqaUBKTNV-1" vertex="1">
          <mxGeometry x="1620" y="2197.75" width="120" height="40" as="geometry" />
        </mxCell>
        <mxCell id="DQUW2nhXrTQ-H9Uuajvi-46" style="edgeStyle=orthogonalEdgeStyle;rounded=0;orthogonalLoop=1;jettySize=auto;html=1;exitX=0.5;exitY=1;exitDx=0;exitDy=0;entryX=0.5;entryY=0;entryDx=0;entryDy=0;" parent="WIyWlLk6GJQsqaUBKTNV-1" source="DQUW2nhXrTQ-H9Uuajvi-42" target="DQUW2nhXrTQ-H9Uuajvi-43" edge="1">
          <mxGeometry relative="1" as="geometry" />
        </mxCell>
        <mxCell id="DQUW2nhXrTQ-H9Uuajvi-42" value="Game::&lt;br&gt;bankDraw()" style="rounded=1;whiteSpace=wrap;html=1;fontSize=12;glass=0;strokeWidth=1;shadow=0;fillColor=#f5f5f5;fontColor=#333333;strokeColor=#666666;" parent="WIyWlLk6GJQsqaUBKTNV-1" vertex="1">
          <mxGeometry x="1620" y="2287.75" width="120" height="40" as="geometry" />
        </mxCell>
        <mxCell id="DQUW2nhXrTQ-H9Uuajvi-55" style="edgeStyle=orthogonalEdgeStyle;rounded=0;orthogonalLoop=1;jettySize=auto;html=1;exitX=0.5;exitY=1;exitDx=0;exitDy=0;entryX=0.5;entryY=0;entryDx=0;entryDy=0;" parent="WIyWlLk6GJQsqaUBKTNV-1" source="DQUW2nhXrTQ-H9Uuajvi-43" target="DQUW2nhXrTQ-H9Uuajvi-54" edge="1">
          <mxGeometry relative="1" as="geometry" />
        </mxCell>
        <mxCell id="DQUW2nhXrTQ-H9Uuajvi-43" value="Game::&lt;br&gt;calculatePoints()" style="rounded=1;whiteSpace=wrap;html=1;fontSize=12;glass=0;strokeWidth=1;shadow=0;fillColor=#f5f5f5;fontColor=#333333;strokeColor=#666666;" parent="WIyWlLk6GJQsqaUBKTNV-1" vertex="1">
          <mxGeometry x="1620" y="2377.75" width="120" height="40" as="geometry" />
        </mxCell>
        <mxCell id="DQUW2nhXrTQ-H9Uuajvi-58" value="Yes" style="edgeStyle=orthogonalEdgeStyle;rounded=0;orthogonalLoop=1;jettySize=auto;html=1;exitX=0;exitY=0.5;exitDx=0;exitDy=0;entryX=0;entryY=0.5;entryDx=0;entryDy=0;" parent="WIyWlLk6GJQsqaUBKTNV-1" source="DQUW2nhXrTQ-H9Uuajvi-44" target="DQUW2nhXrTQ-H9Uuajvi-42" edge="1">
          <mxGeometry relative="1" as="geometry">
            <Array as="points">
              <mxPoint x="1570" y="2817.75" />
              <mxPoint x="1570" y="2307.75" />
            </Array>
          </mxGeometry>
        </mxCell>
        <mxCell id="DQUW2nhXrTQ-H9Uuajvi-59" value="No" style="edgeStyle=orthogonalEdgeStyle;rounded=0;orthogonalLoop=1;jettySize=auto;html=1;exitX=1;exitY=0.5;exitDx=0;exitDy=0;entryX=0.5;entryY=1;entryDx=0;entryDy=0;entryPerimeter=0;" parent="WIyWlLk6GJQsqaUBKTNV-1" source="DQUW2nhXrTQ-H9Uuajvi-44" target="DQUW2nhXrTQ-H9Uuajvi-52" edge="1">
          <mxGeometry relative="1" as="geometry" />
        </mxCell>
        <mxCell id="DQUW2nhXrTQ-H9Uuajvi-44" value="Continue?" style="rhombus;whiteSpace=wrap;html=1;shadow=0;fontFamily=Helvetica;fontSize=12;align=center;strokeWidth=1;spacing=6;spacingTop=-4;fillColor=#f5f5f5;strokeColor=#666666;fontColor=#333333;" parent="WIyWlLk6GJQsqaUBKTNV-1" vertex="1">
          <mxGeometry x="1630" y="2777.75" width="100" height="80" as="geometry" />
        </mxCell>
        <mxCell id="DQUW2nhXrTQ-H9Uuajvi-56" style="edgeStyle=orthogonalEdgeStyle;rounded=0;orthogonalLoop=1;jettySize=auto;html=1;exitX=0.5;exitY=1;exitDx=0;exitDy=0;entryX=0.5;entryY=0;entryDx=0;entryDy=0;" parent="WIyWlLk6GJQsqaUBKTNV-1" source="DQUW2nhXrTQ-H9Uuajvi-48" target="DQUW2nhXrTQ-H9Uuajvi-44" edge="1">
          <mxGeometry relative="1" as="geometry" />
        </mxCell>
        <mxCell id="DQUW2nhXrTQ-H9Uuajvi-48" value="Game::&lt;br&gt;bankContinue()" style="rounded=1;whiteSpace=wrap;html=1;fontSize=12;glass=0;strokeWidth=1;shadow=0;fillColor=#f5f5f5;fontColor=#333333;strokeColor=#666666;" parent="WIyWlLk6GJQsqaUBKTNV-1" vertex="1">
          <mxGeometry x="1620" y="2687.75" width="120" height="40" as="geometry" />
        </mxCell>
        <mxCell id="DQUW2nhXrTQ-H9Uuajvi-49" value="Yes" style="edgeStyle=orthogonalEdgeStyle;rounded=0;orthogonalLoop=1;jettySize=auto;html=1;exitX=1;exitY=0.5;exitDx=0;exitDy=0;entryX=0.5;entryY=0;entryDx=0;entryDy=0;entryPerimeter=0;" parent="WIyWlLk6GJQsqaUBKTNV-1" source="DQUW2nhXrTQ-H9Uuajvi-51" target="DQUW2nhXrTQ-H9Uuajvi-52" edge="1">
          <mxGeometry x="-0.3042" relative="1" as="geometry">
            <mxPoint as="offset" />
          </mxGeometry>
        </mxCell>
        <mxCell id="DQUW2nhXrTQ-H9Uuajvi-50" value="No" style="edgeStyle=orthogonalEdgeStyle;rounded=0;orthogonalLoop=1;jettySize=auto;html=1;exitX=0.5;exitY=1;exitDx=0;exitDy=0;entryX=0.5;entryY=0;entryDx=0;entryDy=0;" parent="WIyWlLk6GJQsqaUBKTNV-1" source="DQUW2nhXrTQ-H9Uuajvi-51" target="DQUW2nhXrTQ-H9Uuajvi-48" edge="1">
          <mxGeometry relative="1" as="geometry">
            <Array as="points">
              <mxPoint x="1680" y="2657.75" />
              <mxPoint x="1680" y="2657.75" />
            </Array>
          </mxGeometry>
        </mxCell>
        <mxCell id="DQUW2nhXrTQ-H9Uuajvi-51" value="Over 21? &lt;br&gt;(isFull)" style="rhombus;whiteSpace=wrap;html=1;shadow=0;fontFamily=Helvetica;fontSize=12;align=center;strokeWidth=1;spacing=6;spacingTop=-4;fillColor=#f5f5f5;strokeColor=#666666;fontColor=#333333;" parent="WIyWlLk6GJQsqaUBKTNV-1" vertex="1">
          <mxGeometry x="1630" y="2557.75" width="100" height="80" as="geometry" />
        </mxCell>
        <mxCell id="DQUW2nhXrTQ-H9Uuajvi-52" value="End game" style="strokeWidth=2;html=1;shape=mxgraph.flowchart.terminator;whiteSpace=wrap;fillColor=#ffe6cc;strokeColor=#d79b00;" parent="WIyWlLk6GJQsqaUBKTNV-1" vertex="1">
          <mxGeometry x="1830" y="2677.75" width="100" height="60" as="geometry" />
        </mxCell>
        <mxCell id="DQUW2nhXrTQ-H9Uuajvi-53" style="edgeStyle=orthogonalEdgeStyle;rounded=0;orthogonalLoop=1;jettySize=auto;html=1;exitX=0.5;exitY=1;exitDx=0;exitDy=0;entryX=0.5;entryY=0;entryDx=0;entryDy=0;" parent="WIyWlLk6GJQsqaUBKTNV-1" source="DQUW2nhXrTQ-H9Uuajvi-54" target="DQUW2nhXrTQ-H9Uuajvi-51" edge="1">
          <mxGeometry relative="1" as="geometry" />
        </mxCell>
        <mxCell id="DQUW2nhXrTQ-H9Uuajvi-54" value="Game::&lt;br&gt;isFull()" style="rounded=1;whiteSpace=wrap;html=1;fontSize=12;glass=0;strokeWidth=1;shadow=0;fillColor=#f5f5f5;fontColor=#333333;strokeColor=#666666;" parent="WIyWlLk6GJQsqaUBKTNV-1" vertex="1">
          <mxGeometry x="1620" y="2467.75" width="120" height="40" as="geometry" />
        </mxCell>
        <mxCell id="T1b6Rpatq1jSky2t6AqJ-0" style="edgeStyle=orthogonalEdgeStyle;rounded=0;orthogonalLoop=1;jettySize=auto;html=1;exitX=0.5;exitY=1;exitDx=0;exitDy=0;exitPerimeter=0;entryX=0.5;entryY=0;entryDx=0;entryDy=0;" parent="WIyWlLk6GJQsqaUBKTNV-1" source="T1b6Rpatq1jSky2t6AqJ-1" target="T1b6Rpatq1jSky2t6AqJ-3" edge="1">
          <mxGeometry relative="1" as="geometry" />
        </mxCell>
        <mxCell id="T1b6Rpatq1jSky2t6AqJ-1" value="End game" style="strokeWidth=2;html=1;shape=mxgraph.flowchart.terminator;whiteSpace=wrap;fillColor=#ffe6cc;strokeColor=#d79b00;" parent="WIyWlLk6GJQsqaUBKTNV-1" vertex="1">
          <mxGeometry x="2240" y="2189.75" width="100" height="60" as="geometry" />
        </mxCell>
        <mxCell id="T1b6Rpatq1jSky2t6AqJ-2" style="edgeStyle=orthogonalEdgeStyle;rounded=0;orthogonalLoop=1;jettySize=auto;html=1;exitX=0.5;exitY=1;exitDx=0;exitDy=0;entryX=0.5;entryY=0;entryDx=0;entryDy=0;" parent="WIyWlLk6GJQsqaUBKTNV-1" source="T1b6Rpatq1jSky2t6AqJ-3" target="T1b6Rpatq1jSky2t6AqJ-5" edge="1">
          <mxGeometry relative="1" as="geometry" />
        </mxCell>
        <mxCell id="T1b6Rpatq1jSky2t6AqJ-3" value="Determine winner" style="rounded=1;whiteSpace=wrap;html=1;fontSize=12;glass=0;strokeWidth=1;shadow=0;fillColor=#f5f5f5;fontColor=#333333;strokeColor=#666666;" parent="WIyWlLk6GJQsqaUBKTNV-1" vertex="1">
          <mxGeometry x="2230" y="2299.75" width="120" height="40" as="geometry" />
        </mxCell>
        <mxCell id="T1b6Rpatq1jSky2t6AqJ-4" style="edgeStyle=orthogonalEdgeStyle;rounded=0;orthogonalLoop=1;jettySize=auto;html=1;exitX=0.5;exitY=1;exitDx=0;exitDy=0;entryX=0.5;entryY=0;entryDx=0;entryDy=0;" parent="WIyWlLk6GJQsqaUBKTNV-1" source="T1b6Rpatq1jSky2t6AqJ-5" target="T1b6Rpatq1jSky2t6AqJ-7" edge="1">
          <mxGeometry relative="1" as="geometry" />
        </mxCell>
        <mxCell id="T1b6Rpatq1jSky2t6AqJ-5" value="Display scoreboard" style="rounded=1;whiteSpace=wrap;html=1;fontSize=12;glass=0;strokeWidth=1;shadow=0;fillColor=#f5f5f5;fontColor=#333333;strokeColor=#666666;" parent="WIyWlLk6GJQsqaUBKTNV-1" vertex="1">
          <mxGeometry x="2230" y="2379.75" width="120" height="40" as="geometry" />
        </mxCell>
        <mxCell id="T1b6Rpatq1jSky2t6AqJ-6" value="No" style="edgeStyle=orthogonalEdgeStyle;rounded=0;orthogonalLoop=1;jettySize=auto;html=1;exitX=0.5;exitY=1;exitDx=0;exitDy=0;entryX=0.5;entryY=0;entryDx=0;entryDy=0;entryPerimeter=0;" parent="WIyWlLk6GJQsqaUBKTNV-1" source="T1b6Rpatq1jSky2t6AqJ-7" target="T1b6Rpatq1jSky2t6AqJ-8" edge="1">
          <mxGeometry relative="1" as="geometry">
            <mxPoint x="2406" y="2509.75" as="targetPoint" />
          </mxGeometry>
        </mxCell>
        <mxCell id="T1b6Rpatq1jSky2t6AqJ-7" value="Start new game?" style="rhombus;whiteSpace=wrap;html=1;shadow=0;fontFamily=Helvetica;fontSize=12;align=center;strokeWidth=1;spacing=6;spacingTop=-4;fillColor=#f5f5f5;strokeColor=#666666;fontColor=#333333;" parent="WIyWlLk6GJQsqaUBKTNV-1" vertex="1">
          <mxGeometry x="2240" y="2469.75" width="100" height="80" as="geometry" />
        </mxCell>
        <mxCell id="T1b6Rpatq1jSky2t6AqJ-8" value="Game over" style="strokeWidth=2;html=1;shape=mxgraph.flowchart.terminator;whiteSpace=wrap;fillColor=#f8cecc;strokeColor=#b85450;" parent="WIyWlLk6GJQsqaUBKTNV-1" vertex="1">
          <mxGeometry x="2240" y="2599.75" width="100" height="60" as="geometry" />
        </mxCell>
        <mxCell id="T1b6Rpatq1jSky2t6AqJ-10" value="" style="strokeWidth=2;html=1;shape=mxgraph.flowchart.annotation_2;align=left;labelPosition=right;pointerEvents=1;" parent="WIyWlLk6GJQsqaUBKTNV-1" vertex="1">
          <mxGeometry x="2390" y="2040" width="60" height="780" as="geometry" />
        </mxCell>
        <mxCell id="T1b6Rpatq1jSky2t6AqJ-11" style="edgeStyle=orthogonalEdgeStyle;rounded=0;orthogonalLoop=1;jettySize=auto;html=1;exitX=0.5;exitY=1;exitDx=0;exitDy=0;exitPerimeter=0;entryX=0.5;entryY=0;entryDx=0;entryDy=0;" parent="WIyWlLk6GJQsqaUBKTNV-1" source="T1b6Rpatq1jSky2t6AqJ-12" target="T1b6Rpatq1jSky2t6AqJ-13" edge="1">
          <mxGeometry relative="1" as="geometry" />
        </mxCell>
        <mxCell id="T1b6Rpatq1jSky2t6AqJ-12" value="End game" style="strokeWidth=2;html=1;shape=mxgraph.flowchart.terminator;whiteSpace=wrap;fillColor=#ffe6cc;strokeColor=#d79b00;" parent="WIyWlLk6GJQsqaUBKTNV-1" vertex="1">
          <mxGeometry x="2470" y="2050.5" width="100" height="60" as="geometry" />
        </mxCell>
        <mxCell id="T1b6Rpatq1jSky2t6AqJ-13" value="POST" style="rounded=1;whiteSpace=wrap;html=1;fontSize=12;glass=0;strokeWidth=1;shadow=0;fillColor=#f5f5f5;fontColor=#333333;strokeColor=#666666;" parent="WIyWlLk6GJQsqaUBKTNV-1" vertex="1">
          <mxGeometry x="2460" y="2160.5" width="120" height="40" as="geometry" />
        </mxCell>
        <mxCell id="T1b6Rpatq1jSky2t6AqJ-14" style="edgeStyle=orthogonalEdgeStyle;rounded=0;orthogonalLoop=1;jettySize=auto;html=1;exitX=0.5;exitY=1;exitDx=0;exitDy=0;entryX=0.5;entryY=0;entryDx=0;entryDy=0;" parent="WIyWlLk6GJQsqaUBKTNV-1" target="T1b6Rpatq1jSky2t6AqJ-15" edge="1">
          <mxGeometry relative="1" as="geometry">
            <mxPoint x="2520" y="2200.5" as="sourcePoint" />
          </mxGeometry>
        </mxCell>
        <mxCell id="T1b6Rpatq1jSky2t6AqJ-22" style="edgeStyle=orthogonalEdgeStyle;rounded=0;orthogonalLoop=1;jettySize=auto;html=1;exitX=0.5;exitY=1;exitDx=0;exitDy=0;entryX=0.5;entryY=0;entryDx=0;entryDy=0;" parent="WIyWlLk6GJQsqaUBKTNV-1" source="T1b6Rpatq1jSky2t6AqJ-15" target="T1b6Rpatq1jSky2t6AqJ-20" edge="1">
          <mxGeometry relative="1" as="geometry" />
        </mxCell>
        <mxCell id="T1b6Rpatq1jSky2t6AqJ-15" value="Create Game object" style="rounded=1;whiteSpace=wrap;html=1;fontSize=12;glass=0;strokeWidth=1;shadow=0;fillColor=#f5f5f5;fontColor=#333333;strokeColor=#666666;" parent="WIyWlLk6GJQsqaUBKTNV-1" vertex="1">
          <mxGeometry x="2460" y="2247.25" width="120" height="40" as="geometry" />
        </mxCell>
        <mxCell id="T1b6Rpatq1jSky2t6AqJ-25" style="edgeStyle=orthogonalEdgeStyle;rounded=0;orthogonalLoop=1;jettySize=auto;html=1;exitX=0.5;exitY=1;exitDx=0;exitDy=0;entryX=0.5;entryY=0;entryDx=0;entryDy=0;" parent="WIyWlLk6GJQsqaUBKTNV-1" source="T1b6Rpatq1jSky2t6AqJ-17" target="T1b6Rpatq1jSky2t6AqJ-23" edge="1">
          <mxGeometry relative="1" as="geometry" />
        </mxCell>
        <mxCell id="T1b6Rpatq1jSky2t6AqJ-17" value="Render end page (player hand, bank hand, points, winner, buttons)" style="rounded=1;whiteSpace=wrap;html=1;fontSize=12;glass=0;strokeWidth=1;shadow=0;fillColor=#f5f5f5;fontColor=#333333;strokeColor=#666666;" parent="WIyWlLk6GJQsqaUBKTNV-1" vertex="1">
          <mxGeometry x="2460" y="2510" width="120" height="70" as="geometry" />
        </mxCell>
        <mxCell id="7d7kEKSGhkKk4WfCblSH-1" style="edgeStyle=orthogonalEdgeStyle;rounded=0;orthogonalLoop=1;jettySize=auto;html=1;exitX=0.5;exitY=1;exitDx=0;exitDy=0;entryX=0.5;entryY=0;entryDx=0;entryDy=0;" parent="WIyWlLk6GJQsqaUBKTNV-1" source="T1b6Rpatq1jSky2t6AqJ-20" target="7d7kEKSGhkKk4WfCblSH-0" edge="1">
          <mxGeometry relative="1" as="geometry" />
        </mxCell>
        <mxCell id="T1b6Rpatq1jSky2t6AqJ-20" value="Game::&lt;br&gt;getGameState()" style="rounded=1;whiteSpace=wrap;html=1;fontSize=12;glass=0;strokeWidth=1;shadow=0;fillColor=#f5f5f5;fontColor=#333333;strokeColor=#666666;" parent="WIyWlLk6GJQsqaUBKTNV-1" vertex="1">
          <mxGeometry x="2460" y="2332.75" width="120" height="40" as="geometry" />
        </mxCell>
        <mxCell id="T1b6Rpatq1jSky2t6AqJ-21" value="Start game" style="strokeWidth=2;html=1;shape=mxgraph.flowchart.terminator;whiteSpace=wrap;fillColor=#d5e8d4;strokeColor=#82b366;" parent="WIyWlLk6GJQsqaUBKTNV-1" vertex="1">
          <mxGeometry x="2625" y="2760" width="100" height="60" as="geometry" />
        </mxCell>
        <mxCell id="T1b6Rpatq1jSky2t6AqJ-27" value="No" style="edgeStyle=orthogonalEdgeStyle;rounded=0;orthogonalLoop=1;jettySize=auto;html=1;exitX=0.5;exitY=1;exitDx=0;exitDy=0;entryX=0.5;entryY=0;entryDx=0;entryDy=0;entryPerimeter=0;" parent="WIyWlLk6GJQsqaUBKTNV-1" source="T1b6Rpatq1jSky2t6AqJ-23" target="T1b6Rpatq1jSky2t6AqJ-26" edge="1">
          <mxGeometry relative="1" as="geometry" />
        </mxCell>
        <mxCell id="T1b6Rpatq1jSky2t6AqJ-28" value="Yes" style="edgeStyle=orthogonalEdgeStyle;rounded=0;orthogonalLoop=1;jettySize=auto;html=1;exitX=1;exitY=0.5;exitDx=0;exitDy=0;entryX=0;entryY=0.5;entryDx=0;entryDy=0;" parent="WIyWlLk6GJQsqaUBKTNV-1" source="T1b6Rpatq1jSky2t6AqJ-23" target="T1b6Rpatq1jSky2t6AqJ-24" edge="1">
          <mxGeometry relative="1" as="geometry" />
        </mxCell>
        <mxCell id="T1b6Rpatq1jSky2t6AqJ-23" value="Start new game?" style="rhombus;whiteSpace=wrap;html=1;shadow=0;fontFamily=Helvetica;fontSize=12;align=center;strokeWidth=1;spacing=6;spacingTop=-4;fillColor=#f5f5f5;strokeColor=#666666;fontColor=#333333;" parent="WIyWlLk6GJQsqaUBKTNV-1" vertex="1">
          <mxGeometry x="2470" y="2630" width="100" height="80" as="geometry" />
        </mxCell>
        <mxCell id="T1b6Rpatq1jSky2t6AqJ-29" style="edgeStyle=orthogonalEdgeStyle;rounded=0;orthogonalLoop=1;jettySize=auto;html=1;exitX=0.5;exitY=1;exitDx=0;exitDy=0;entryX=0.5;entryY=0;entryDx=0;entryDy=0;entryPerimeter=0;" parent="WIyWlLk6GJQsqaUBKTNV-1" source="T1b6Rpatq1jSky2t6AqJ-24" target="T1b6Rpatq1jSky2t6AqJ-21" edge="1">
          <mxGeometry relative="1" as="geometry" />
        </mxCell>
        <mxCell id="T1b6Rpatq1jSky2t6AqJ-24" value="User presses &lt;br&gt;new game button" style="shape=parallelogram;html=1;strokeWidth=1;perimeter=parallelogramPerimeter;whiteSpace=wrap;rounded=1;arcSize=12;size=0.23;fillColor=#f5f5f5;fontColor=#333333;strokeColor=#666666;" parent="WIyWlLk6GJQsqaUBKTNV-1" vertex="1">
          <mxGeometry x="2610" y="2640" width="130" height="60" as="geometry" />
        </mxCell>
        <mxCell id="T1b6Rpatq1jSky2t6AqJ-26" value="Game over" style="strokeWidth=2;html=1;shape=mxgraph.flowchart.terminator;whiteSpace=wrap;fillColor=#f8cecc;strokeColor=#b85450;" parent="WIyWlLk6GJQsqaUBKTNV-1" vertex="1">
          <mxGeometry x="2470" y="2760" width="100" height="60" as="geometry" />
        </mxCell>
        <mxCell id="7d7kEKSGhkKk4WfCblSH-2" style="edgeStyle=orthogonalEdgeStyle;rounded=0;orthogonalLoop=1;jettySize=auto;html=1;exitX=0.5;exitY=1;exitDx=0;exitDy=0;entryX=0.5;entryY=0;entryDx=0;entryDy=0;" parent="WIyWlLk6GJQsqaUBKTNV-1" source="7d7kEKSGhkKk4WfCblSH-0" target="T1b6Rpatq1jSky2t6AqJ-17" edge="1">
          <mxGeometry relative="1" as="geometry">
            <mxPoint x="2520" y="2470" as="sourcePoint" />
          </mxGeometry>
        </mxCell>
        <mxCell id="7d7kEKSGhkKk4WfCblSH-0" value="Game::&lt;br&gt;determineWinner()" style="rounded=1;whiteSpace=wrap;html=1;fontSize=12;glass=0;strokeWidth=1;shadow=0;fillColor=#f5f5f5;fontColor=#333333;strokeColor=#666666;" parent="WIyWlLk6GJQsqaUBKTNV-1" vertex="1">
          <mxGeometry x="2460" y="2420" width="120" height="40" as="geometry" />
        </mxCell>
        <mxCell id="erpGbD3YSl5tQN90PYb7-0" style="edgeStyle=orthogonalEdgeStyle;rounded=0;orthogonalLoop=1;jettySize=auto;html=1;exitX=0.5;exitY=1;exitDx=0;exitDy=0;exitPerimeter=0;entryX=0.5;entryY=0;entryDx=0;entryDy=0;" edge="1" parent="WIyWlLk6GJQsqaUBKTNV-1" source="erpGbD3YSl5tQN90PYb7-1" target="erpGbD3YSl5tQN90PYb7-3">
          <mxGeometry relative="1" as="geometry" />
        </mxCell>
        <mxCell id="erpGbD3YSl5tQN90PYb7-1" value="Start game" style="strokeWidth=2;html=1;shape=mxgraph.flowchart.terminator;whiteSpace=wrap;fillColor=#d5e8d4;strokeColor=#82b366;" vertex="1" parent="WIyWlLk6GJQsqaUBKTNV-1">
          <mxGeometry x="2360" y="270" width="100" height="60" as="geometry" />
        </mxCell>
        <mxCell id="erpGbD3YSl5tQN90PYb7-2" style="edgeStyle=orthogonalEdgeStyle;rounded=0;orthogonalLoop=1;jettySize=auto;html=1;exitX=0.5;exitY=1;exitDx=0;exitDy=0;entryX=0.5;entryY=0;entryDx=0;entryDy=0;" edge="1" parent="WIyWlLk6GJQsqaUBKTNV-1" source="erpGbD3YSl5tQN90PYb7-3" target="erpGbD3YSl5tQN90PYb7-4">
          <mxGeometry relative="1" as="geometry" />
        </mxCell>
        <mxCell id="erpGbD3YSl5tQN90PYb7-3" value="Load rooms" style="rounded=1;whiteSpace=wrap;html=1;fontSize=12;glass=0;strokeWidth=1;shadow=0;fillColor=#f5f5f5;fontColor=#333333;strokeColor=#666666;" vertex="1" parent="WIyWlLk6GJQsqaUBKTNV-1">
          <mxGeometry x="2350" y="380" width="120" height="40" as="geometry" />
        </mxCell>
        <mxCell id="erpGbD3YSl5tQN90PYb7-11" style="edgeStyle=orthogonalEdgeStyle;rounded=0;orthogonalLoop=1;jettySize=auto;html=1;exitX=0.5;exitY=1;exitDx=0;exitDy=0;entryX=0.5;entryY=0;entryDx=0;entryDy=0;" edge="1" parent="WIyWlLk6GJQsqaUBKTNV-1" source="erpGbD3YSl5tQN90PYb7-4" target="erpGbD3YSl5tQN90PYb7-10">
          <mxGeometry relative="1" as="geometry" />
        </mxCell>
        <mxCell id="erpGbD3YSl5tQN90PYb7-4" value="Load items" style="rounded=1;whiteSpace=wrap;html=1;fontSize=12;glass=0;strokeWidth=1;shadow=0;fillColor=#f5f5f5;fontColor=#333333;strokeColor=#666666;" vertex="1" parent="WIyWlLk6GJQsqaUBKTNV-1">
          <mxGeometry x="2350" y="470" width="120" height="40" as="geometry" />
        </mxCell>
        <mxCell id="erpGbD3YSl5tQN90PYb7-27" style="edgeStyle=orthogonalEdgeStyle;rounded=0;orthogonalLoop=1;jettySize=auto;html=1;exitX=0.5;exitY=1;exitDx=0;exitDy=0;exitPerimeter=0;entryX=0.5;entryY=0;entryDx=0;entryDy=0;" edge="1" parent="WIyWlLk6GJQsqaUBKTNV-1" source="erpGbD3YSl5tQN90PYb7-6" target="erpGbD3YSl5tQN90PYb7-8">
          <mxGeometry relative="1" as="geometry" />
        </mxCell>
        <mxCell id="erpGbD3YSl5tQN90PYb7-6" value="Enter room" style="strokeWidth=2;html=1;shape=mxgraph.flowchart.terminator;whiteSpace=wrap;fillColor=#dae8fc;strokeColor=#6c8ebf;" vertex="1" parent="WIyWlLk6GJQsqaUBKTNV-1">
          <mxGeometry x="2600" y="270" width="100" height="60" as="geometry" />
        </mxCell>
        <mxCell id="erpGbD3YSl5tQN90PYb7-7" style="edgeStyle=orthogonalEdgeStyle;rounded=0;orthogonalLoop=1;jettySize=auto;html=1;exitX=0.5;exitY=1;exitDx=0;exitDy=0;entryX=0.5;entryY=0;entryDx=0;entryDy=0;" edge="1" parent="WIyWlLk6GJQsqaUBKTNV-1" source="erpGbD3YSl5tQN90PYb7-8" target="erpGbD3YSl5tQN90PYb7-9">
          <mxGeometry relative="1" as="geometry" />
        </mxCell>
        <mxCell id="erpGbD3YSl5tQN90PYb7-8" value="Display room description" style="rounded=1;whiteSpace=wrap;html=1;fontSize=12;glass=0;strokeWidth=1;shadow=0;fillColor=#f5f5f5;fontColor=#333333;strokeColor=#666666;" vertex="1" parent="WIyWlLk6GJQsqaUBKTNV-1">
          <mxGeometry x="2590" y="380" width="120" height="40" as="geometry" />
        </mxCell>
        <mxCell id="erpGbD3YSl5tQN90PYb7-29" style="edgeStyle=orthogonalEdgeStyle;rounded=0;orthogonalLoop=1;jettySize=auto;html=1;exitX=0.5;exitY=1;exitDx=0;exitDy=0;entryX=0.5;entryY=0;entryDx=0;entryDy=0;" edge="1" parent="WIyWlLk6GJQsqaUBKTNV-1" source="erpGbD3YSl5tQN90PYb7-9" target="erpGbD3YSl5tQN90PYb7-28">
          <mxGeometry relative="1" as="geometry" />
        </mxCell>
        <mxCell id="erpGbD3YSl5tQN90PYb7-9" value="Display item description" style="rounded=1;whiteSpace=wrap;html=1;fontSize=12;glass=0;strokeWidth=1;shadow=0;fillColor=#f5f5f5;fontColor=#333333;strokeColor=#666666;" vertex="1" parent="WIyWlLk6GJQsqaUBKTNV-1">
          <mxGeometry x="2590" y="470" width="120" height="40" as="geometry" />
        </mxCell>
        <mxCell id="erpGbD3YSl5tQN90PYb7-15" style="edgeStyle=orthogonalEdgeStyle;rounded=0;orthogonalLoop=1;jettySize=auto;html=1;exitX=0.5;exitY=1;exitDx=0;exitDy=0;entryX=0.5;entryY=0;entryDx=0;entryDy=0;" edge="1" parent="WIyWlLk6GJQsqaUBKTNV-1" source="erpGbD3YSl5tQN90PYb7-10" target="erpGbD3YSl5tQN90PYb7-12">
          <mxGeometry relative="1" as="geometry" />
        </mxCell>
        <mxCell id="erpGbD3YSl5tQN90PYb7-10" value="Generate map" style="rounded=1;whiteSpace=wrap;html=1;fontSize=12;glass=0;strokeWidth=1;shadow=0;fillColor=#f5f5f5;fontColor=#333333;strokeColor=#666666;" vertex="1" parent="WIyWlLk6GJQsqaUBKTNV-1">
          <mxGeometry x="2350" y="560" width="120" height="40" as="geometry" />
        </mxCell>
        <mxCell id="erpGbD3YSl5tQN90PYb7-16" style="edgeStyle=orthogonalEdgeStyle;rounded=0;orthogonalLoop=1;jettySize=auto;html=1;exitX=0.5;exitY=1;exitDx=0;exitDy=0;entryX=0.5;entryY=0;entryDx=0;entryDy=0;" edge="1" parent="WIyWlLk6GJQsqaUBKTNV-1" source="erpGbD3YSl5tQN90PYb7-12" target="erpGbD3YSl5tQN90PYb7-13">
          <mxGeometry relative="1" as="geometry" />
        </mxCell>
        <mxCell id="erpGbD3YSl5tQN90PYb7-12" value="Load quests" style="rounded=1;whiteSpace=wrap;html=1;fontSize=12;glass=0;strokeWidth=1;shadow=0;fillColor=#f5f5f5;fontColor=#333333;strokeColor=#666666;" vertex="1" parent="WIyWlLk6GJQsqaUBKTNV-1">
          <mxGeometry x="2350" y="650" width="120" height="40" as="geometry" />
        </mxCell>
        <mxCell id="erpGbD3YSl5tQN90PYb7-18" style="edgeStyle=orthogonalEdgeStyle;rounded=0;orthogonalLoop=1;jettySize=auto;html=1;exitX=0.5;exitY=1;exitDx=0;exitDy=0;entryX=0.5;entryY=0;entryDx=0;entryDy=0;" edge="1" parent="WIyWlLk6GJQsqaUBKTNV-1" source="erpGbD3YSl5tQN90PYb7-13" target="erpGbD3YSl5tQN90PYb7-14">
          <mxGeometry relative="1" as="geometry" />
        </mxCell>
        <mxCell id="erpGbD3YSl5tQN90PYb7-13" value="Add quests to map" style="rounded=1;whiteSpace=wrap;html=1;fontSize=12;glass=0;strokeWidth=1;shadow=0;fillColor=#f5f5f5;fontColor=#333333;strokeColor=#666666;" vertex="1" parent="WIyWlLk6GJQsqaUBKTNV-1">
          <mxGeometry x="2350" y="740" width="120" height="40" as="geometry" />
        </mxCell>
        <mxCell id="erpGbD3YSl5tQN90PYb7-22" style="edgeStyle=orthogonalEdgeStyle;rounded=0;orthogonalLoop=1;jettySize=auto;html=1;exitX=0.5;exitY=1;exitDx=0;exitDy=0;entryX=0.5;entryY=0;entryDx=0;entryDy=0;" edge="1" parent="WIyWlLk6GJQsqaUBKTNV-1" source="erpGbD3YSl5tQN90PYb7-14" target="erpGbD3YSl5tQN90PYb7-19">
          <mxGeometry relative="1" as="geometry" />
        </mxCell>
        <mxCell id="erpGbD3YSl5tQN90PYb7-14" value="Update game state" style="rounded=1;whiteSpace=wrap;html=1;fontSize=12;glass=0;strokeWidth=1;shadow=0;fillColor=#f5f5f5;fontColor=#333333;strokeColor=#666666;" vertex="1" parent="WIyWlLk6GJQsqaUBKTNV-1">
          <mxGeometry x="2350" y="830" width="120" height="40" as="geometry" />
        </mxCell>
        <mxCell id="erpGbD3YSl5tQN90PYb7-23" style="edgeStyle=orthogonalEdgeStyle;rounded=0;orthogonalLoop=1;jettySize=auto;html=1;exitX=1;exitY=0.5;exitDx=0;exitDy=0;entryX=0;entryY=0.5;entryDx=0;entryDy=0;entryPerimeter=0;" edge="1" parent="WIyWlLk6GJQsqaUBKTNV-1" source="erpGbD3YSl5tQN90PYb7-19" target="erpGbD3YSl5tQN90PYb7-6">
          <mxGeometry relative="1" as="geometry" />
        </mxCell>
        <mxCell id="erpGbD3YSl5tQN90PYb7-19" value="Render first room with current gamestate" style="rounded=1;whiteSpace=wrap;html=1;fontSize=12;glass=0;strokeWidth=1;shadow=0;fillColor=#f5f5f5;fontColor=#333333;strokeColor=#666666;" vertex="1" parent="WIyWlLk6GJQsqaUBKTNV-1">
          <mxGeometry x="2350" y="920" width="120" height="40" as="geometry" />
        </mxCell>
        <mxCell id="erpGbD3YSl5tQN90PYb7-20" value="Starting point" style="rounded=1;whiteSpace=wrap;html=1;fontSize=12;glass=0;strokeWidth=1;shadow=0;fillColor=#f5f5f5;fontColor=#333333;strokeColor=#666666;" vertex="1" parent="WIyWlLk6GJQsqaUBKTNV-1">
          <mxGeometry x="2160" y="585" width="120" height="40" as="geometry" />
        </mxCell>
        <mxCell id="erpGbD3YSl5tQN90PYb7-21" value="End point/victory condition" style="rounded=1;whiteSpace=wrap;html=1;fontSize=12;glass=0;strokeWidth=1;shadow=0;fillColor=#f5f5f5;fontColor=#333333;strokeColor=#666666;" vertex="1" parent="WIyWlLk6GJQsqaUBKTNV-1">
          <mxGeometry x="2160" y="650" width="120" height="40" as="geometry" />
        </mxCell>
        <mxCell id="erpGbD3YSl5tQN90PYb7-33" style="edgeStyle=orthogonalEdgeStyle;rounded=0;orthogonalLoop=1;jettySize=auto;html=1;exitX=1;exitY=0.5;exitDx=0;exitDy=0;entryX=0;entryY=0.5;entryDx=0;entryDy=0;" edge="1" parent="WIyWlLk6GJQsqaUBKTNV-1" source="erpGbD3YSl5tQN90PYb7-28" target="erpGbD3YSl5tQN90PYb7-32">
          <mxGeometry relative="1" as="geometry" />
        </mxCell>
        <mxCell id="erpGbD3YSl5tQN90PYb7-36" style="edgeStyle=orthogonalEdgeStyle;rounded=0;orthogonalLoop=1;jettySize=auto;html=1;exitX=0.5;exitY=1;exitDx=0;exitDy=0;entryX=0.5;entryY=0;entryDx=0;entryDy=0;" edge="1" parent="WIyWlLk6GJQsqaUBKTNV-1" source="erpGbD3YSl5tQN90PYb7-28" target="erpGbD3YSl5tQN90PYb7-31">
          <mxGeometry relative="1" as="geometry" />
        </mxCell>
        <mxCell id="erpGbD3YSl5tQN90PYb7-28" value="Display options" style="rounded=1;whiteSpace=wrap;html=1;fontSize=12;glass=0;strokeWidth=1;shadow=0;fillColor=#f5f5f5;fontColor=#333333;strokeColor=#666666;" vertex="1" parent="WIyWlLk6GJQsqaUBKTNV-1">
          <mxGeometry x="2590" y="560" width="120" height="40" as="geometry" />
        </mxCell>
        <mxCell id="erpGbD3YSl5tQN90PYb7-37" style="edgeStyle=orthogonalEdgeStyle;rounded=0;orthogonalLoop=1;jettySize=auto;html=1;exitX=0;exitY=0.5;exitDx=0;exitDy=0;entryX=0.11;entryY=0.89;entryDx=0;entryDy=0;entryPerimeter=0;" edge="1" parent="WIyWlLk6GJQsqaUBKTNV-1" source="erpGbD3YSl5tQN90PYb7-31" target="erpGbD3YSl5tQN90PYb7-6">
          <mxGeometry relative="1" as="geometry">
            <Array as="points">
              <mxPoint x="2580" y="680" />
              <mxPoint x="2580" y="360" />
              <mxPoint x="2611" y="360" />
            </Array>
          </mxGeometry>
        </mxCell>
        <mxCell id="erpGbD3YSl5tQN90PYb7-31" value="Pick up &lt;br&gt;object" style="rhombus;whiteSpace=wrap;html=1;shadow=0;fontFamily=Helvetica;fontSize=12;align=center;strokeWidth=1;spacing=6;spacingTop=-4;fillColor=#f5f5f5;strokeColor=#666666;fontColor=#333333;" vertex="1" parent="WIyWlLk6GJQsqaUBKTNV-1">
          <mxGeometry x="2600" y="640" width="100" height="80" as="geometry" />
        </mxCell>
        <mxCell id="erpGbD3YSl5tQN90PYb7-35" style="edgeStyle=orthogonalEdgeStyle;rounded=0;orthogonalLoop=1;jettySize=auto;html=1;exitX=0.5;exitY=0;exitDx=0;exitDy=0;entryX=0.5;entryY=1;entryDx=0;entryDy=0;" edge="1" parent="WIyWlLk6GJQsqaUBKTNV-1" source="erpGbD3YSl5tQN90PYb7-32" target="erpGbD3YSl5tQN90PYb7-34">
          <mxGeometry relative="1" as="geometry" />
        </mxCell>
        <mxCell id="erpGbD3YSl5tQN90PYb7-32" value="Move" style="rhombus;whiteSpace=wrap;html=1;shadow=0;fontFamily=Helvetica;fontSize=12;align=center;strokeWidth=1;spacing=6;spacingTop=-4;fillColor=#f5f5f5;strokeColor=#666666;fontColor=#333333;" vertex="1" parent="WIyWlLk6GJQsqaUBKTNV-1">
          <mxGeometry x="2780" y="540" width="100" height="80" as="geometry" />
        </mxCell>
        <mxCell id="erpGbD3YSl5tQN90PYb7-38" style="edgeStyle=orthogonalEdgeStyle;rounded=0;orthogonalLoop=1;jettySize=auto;html=1;exitX=0.5;exitY=0;exitDx=0;exitDy=0;entryX=1;entryY=0.5;entryDx=0;entryDy=0;entryPerimeter=0;" edge="1" parent="WIyWlLk6GJQsqaUBKTNV-1" source="erpGbD3YSl5tQN90PYb7-34" target="erpGbD3YSl5tQN90PYb7-6">
          <mxGeometry relative="1" as="geometry" />
        </mxCell>
        <mxCell id="erpGbD3YSl5tQN90PYb7-34" value="Update gamestate" style="rounded=1;whiteSpace=wrap;html=1;fontSize=12;glass=0;strokeWidth=1;shadow=0;fillColor=#f5f5f5;fontColor=#333333;strokeColor=#666666;" vertex="1" parent="WIyWlLk6GJQsqaUBKTNV-1">
          <mxGeometry x="2770" y="430" width="120" height="40" as="geometry" />
        </mxCell>
      </root>
    </mxGraphModel>
  </diagram>
</mxfile>
